<svg xmlns="http://www.w3.org/2000/svg" xlink="http://www.w3.org/1999/xlink" id="mind-svg-view-con" version="1.1" width="2117.5625px" height="753px" style="position: absolute; left: 0px; top: 0px; width: 2117.5625px; height: 753px; background-color: rgb(248, 249, 248); z-index: 999;"><defs></defs><g id="svgbackgroundid"><defs></defs><rect x="0" y="0" width="2117.5625" height="753" fill="#f8f9f8"></rect></g><g transform="translate(-8968.53125, -9570)" id="sdjakdjak7"><defs></defs><g class="svg-topic-con" transform="translate(0.5,0.5)"><path part="left" sub="true" id="line_ad11c30aba77" d="M 10000 9942.5 C 10000 9942.5 9990 9816.5 9846 9816.5" stroke="#cccdcd" fill="none" stroke-width="2"></path><path part="left" sub="true" id="line_fd4fa8c2d8e5" d="M 10000 9942.5 C 10000 9942.5 9990 9978.5 9846 9978.5" stroke="#cccdcd" fill="none" stroke-width="2"></path><path part="left" sub="true" id="line_8050305c4d86e317" d="M 10000 9942.5 C 10000 9942.5 9990 10104.5 9846 10104.5" stroke="#cccdcd" fill="none" stroke-width="2"></path><path part="right" sub="true" id="line_6095425cb130" d="M 10000 9942.5 C 10000 9942.5 10010 9684 10154 9684" stroke="#cccdcd" fill="none" stroke-width="2"></path><path part="right" sub="true" id="line_7cc10fc86fcc" d="M 10000 9942.5 C 10000 9942.5 10010 9993.5 10154 9993.5" stroke="#cccdcd" fill="none" stroke-width="2"></path><path part="right" sub="true" id="line_888f517c137c" d="M 10000 9942.5 C 10000 9942.5 10010 10252 10154 10252" stroke="#cccdcd" fill="none" stroke-width="2"></path></g><g class="svg-connection-con" transform="translate(0.5,0.5)"></g><g class="svg-freesums-con" transform="translate(0.5,0.5)"></g><g class="svg-freebos-con" transform="translate(0.5,0.5)"></g></g><g id="05cec1d7c26dd2cb"><rect x="517.03125" y="484.5" rx="5px" ry="5px" width="214" height="26" style="fill: #FFCDD2; stroke:rgb(68,68,68);stroke-width:1px;"></rect><g><text text-anchor="start" align="top" anchor="start" font-size="13px" font-weight="normal" fill="rgb(68, 68, 68)" style="font-size:13px;font-family:微软雅黑;color:rgb(68,68,68);font-style:normal;text-align:left;font-weight:normal;background-color:#FFCDD2;"><tspan x="527" y="503"><tspan>Apple Keynote, Numbers, Pages</tspan></tspan></text></g></g><g id="7e92bfdd0bb716be"><rect x="500.21875" y="520.5" rx="5px" ry="5px" width="231" height="26" style="fill: #FFCDD2; stroke:rgb(68,68,68);stroke-width:1px;"></rect><g><text text-anchor="start" align="top" anchor="start" font-size="13px" font-weight="normal" fill="rgb(68, 68, 68)" style="font-size:13px;font-family:微软雅黑;color:rgb(68,68,68);font-style:normal;text-align:left;font-weight:normal;background-color:#FFCDD2;"><tspan x="510" y="539"><tspan>Microsoft PowerPoint, Excel, Word</tspan></tspan></text></g></g><g id="a6c4b30ad038986c"><rect x="672.78125" y="556.5" rx="5px" ry="5px" width="58" height="26" style="fill: #FFF9C4; stroke:rgb(68,68,68);stroke-width:1px;"></rect><g><text text-anchor="start" align="top" anchor="start" font-size="13px" font-weight="normal" fill="rgb(68, 68, 68)" style="font-size:13px;font-family:微软雅黑;color:rgb(68,68,68);font-style:normal;text-align:left;font-weight:normal;background-color:#FFF9C4;"><tspan x="683" y="575"><tspan>LaTeX</tspan></tspan></text></g></g><g id="8050305c4d86e317"><rect x="759.25" y="515.140625" rx="6px" ry="6px" width="118" height="40" style="fill: rgb(223, 223, 223); stroke:rgb(102, 102, 102);stroke-width:0px;"></rect><g><text text-anchor="start" align="top" anchor="start" font-size="16px" font-weight="normal" fill="rgb(102, 102, 102)" style="font-size:16px;font-family:微软雅黑;color:rgb(102, 102, 102);font-style:normal;text-align:left;font-weight:normal;background-color:rgb(223, 223, 223);text-decoration:none;border-color:rgb(102, 102, 102);"><tspan x="775" y="541"><tspan>Office skills</tspan></tspan></text></g></g><g id="888f517c137c"><rect x="1185.46875" y="662.640625" rx="6px" ry="6px" width="158" height="40" style="fill: rgb(223, 223, 223); stroke:rgb(102, 102, 102);stroke-width:0px;"></rect><g><text text-anchor="start" align="top" anchor="start" font-size="16px" font-weight="normal" fill="rgb(102, 102, 102)" style="font-size:16px;font-family:微软雅黑;color:rgb(102, 102, 102);font-style:normal;text-align:left;font-weight:normal;background-color:rgb(223, 223, 223);text-decoration:none;border-color:rgb(102, 102, 102);"><tspan x="1201" y="689"><tspan>Hardware design</tspan></tspan></text></g></g><g id="f53befef6567"><rect x="1371.0625" y="649" rx="5px" ry="5px" width="52" height="26" style="fill: #FFCDD2; stroke:rgb(68,68,68);stroke-width:1px;"></rect><g><text text-anchor="start" align="top" anchor="start" font-size="13px" font-weight="normal" fill="rgb(68, 68, 68)" style="font-size:13px;font-family:微软雅黑;color:rgb(68,68,68);font-style:normal;text-align:left;font-weight:normal;background-color:#FFCDD2;"><tspan x="1381" y="668"><tspan>lceda</tspan></tspan></text></g></g><g id="c114fc9f59b7"><rect x="1451.34375" y="650.140625" rx="5px" ry="5px" width="279" height="25" style="fill: transparent; stroke:none;stroke-width:0px;"></rect><g><text text-anchor="start" align="top" anchor="start" font-size="13px" font-weight="normal" fill="rgb(68, 68, 68)" style="font-size:13px;font-family:微软雅黑;color:rgb(68,68,68);font-style:normal;text-align:left;font-weight:normal;"><tspan x="1460" y="668"><tspan>Simple circuit board design and production</tspan></tspan></text></g></g><g id="59a68d2dedd0"><rect x="1371.0625" y="686" rx="5px" ry="5px" width="114" height="26" style="fill: #FFF9C4; stroke:rgb(68,68,68);stroke-width:1px;"></rect><g><text text-anchor="start" align="top" anchor="start" font-size="13px" font-weight="normal" fill="rgb(68, 68, 68)" style="font-size:13px;font-family:微软雅黑;color:rgb(68,68,68);font-style:normal;text-align:left;font-weight:normal;background-color:#FFF9C4;"><tspan x="1381" y="705"><tspan>Altium designer</tspan></tspan></text></g></g><g id="77ba4958317f"><rect x="1512.96875" y="687.140625" rx="5px" ry="5px" width="291" height="25" style="fill: transparent; stroke:none;stroke-width:0px;"></rect><g><text text-anchor="start" align="top" anchor="start" font-size="13px" font-weight="normal" fill="rgb(68, 68, 68)" style="font-size:13px;font-family:微软雅黑;color:rgb(68,68,68);font-style:normal;text-align:left;font-weight:normal;"><tspan x="1522" y="705"><tspan>Complex circuit board design and production</tspan></tspan></text></g></g><g id="7cc10fc86fcc"><rect x="1185.46875" y="403.640625" rx="6px" ry="6px" width="225" height="40" style="fill: rgb(223, 223, 223); stroke:rgb(102, 102, 102);stroke-width:0px;"></rect><g><text text-anchor="start" align="top" anchor="start" font-size="16px" font-weight="normal" fill="rgb(102, 102, 102)" style="font-size:16px;font-family:微软雅黑;color:rgb(102, 102, 102);font-style:normal;text-align:left;font-weight:normal;background-color:rgb(223, 223, 223);text-decoration:none;border-color:rgb(102, 102, 102);"><tspan x="1201" y="430"><tspan>3D Design and Simulation</tspan></tspan></text></g></g><g id="2cbb4037259b"><rect x="1438.015625" y="299.140625" rx="5px" ry="5px" width="59" height="25" style="fill: transparent; stroke:none;stroke-width:0px;"></rect><g><text text-anchor="start" align="top" anchor="start" font-size="13px" font-weight="normal" fill="rgb(68, 68, 68)" style="font-size:13px;font-family:微软雅黑;color:rgb(68,68,68);font-style:normal;text-align:left;font-weight:normal;"><tspan x="1447" y="317"><tspan>Design</tspan></tspan></text></g></g><g id="f897c0862c09"><rect x="1525.265625" y="224" rx="5px" ry="5px" width="85" height="26" style="fill: #FFCDD2; stroke:rgb(68,68,68);stroke-width:1px;"></rect><g><text text-anchor="start" align="top" anchor="start" font-size="13px" font-weight="normal" fill="rgb(68, 68, 68)" style="font-size:13px;font-family:微软雅黑;color:rgb(68,68,68);font-style:normal;text-align:left;font-weight:normal;background-color:#FFCDD2;"><tspan x="1535" y="243"><tspan>Solidworks</tspan></tspan></text></g></g><g id="6b6c9f14ded7"><rect x="1638.734375" y="225.140625" rx="5px" ry="5px" width="316" height="25" style="fill: transparent; stroke:none;stroke-width:0px;"></rect><g><text text-anchor="start" align="top" anchor="start" font-size="13px" font-weight="normal" fill="rgb(68, 68, 68)" style="font-size:13px;font-family:微软雅黑;color:rgb(68,68,68);font-style:normal;text-align:left;font-weight:normal;"><tspan x="1648" y="243"><tspan>mechanical structure design and rapid simulation</tspan></tspan></text></g></g><g id="35a76a8de912"><rect x="1525.265625" y="261" rx="5px" ry="5px" width="54" height="26" style="fill: #FFCDD2; stroke:rgb(68,68,68);stroke-width:1px;"></rect><g><text text-anchor="start" align="top" anchor="start" font-size="13px" font-weight="normal" fill="rgb(68, 68, 68)" style="font-size:13px;font-family:微软雅黑;color:rgb(68,68,68);font-style:normal;text-align:left;font-weight:normal;background-color:#FFCDD2;"><tspan x="1535" y="280"><tspan>Rhino</tspan></tspan></text></g></g><g id="7e735485865f"><rect x="1607.5" y="262.140625" rx="5px" ry="5px" width="164" height="25" style="fill: transparent; stroke:none;stroke-width:0px;"></rect><g><text text-anchor="start" align="top" anchor="start" font-size="13px" font-weight="normal" fill="rgb(68, 68, 68)" style="font-size:13px;font-family:微软雅黑;color:rgb(68,68,68);font-style:normal;text-align:left;font-weight:normal;"><tspan x="1617" y="280"><tspan>Complex surface design</tspan></tspan></text></g></g><g id="0c15c27b0087"><rect x="1525.265625" y="298" rx="5px" ry="5px" width="49" height="26" style="fill: #FFF9C4; stroke:rgb(68,68,68);stroke-width:1px;"></rect><g><text text-anchor="start" align="top" anchor="start" font-size="13px" font-weight="normal" fill="rgb(68, 68, 68)" style="font-size:13px;font-family:微软雅黑;color:rgb(68,68,68);font-style:normal;text-align:left;font-weight:normal;background-color:#FFF9C4;"><tspan x="1535" y="317"><tspan>Creo</tspan></tspan></text></g></g><g id="af96b5e8beaf"><rect x="1602.3125" y="299.140625" rx="5px" ry="5px" width="210" height="25" style="fill: transparent; stroke:none;stroke-width:0px;"></rect><g><text text-anchor="start" align="top" anchor="start" font-size="13px" font-weight="normal" fill="rgb(68, 68, 68)" style="font-size:13px;font-family:微软雅黑;color:rgb(68,68,68);font-style:normal;text-align:left;font-weight:normal;"><tspan x="1611" y="317"><tspan>3D mechanical structure design</tspan></tspan></text></g></g><g id="552f6cec185c"><rect x="1525.265625" y="335" rx="5px" ry="5px" width="87" height="26" style="fill: #FFCDD2; stroke:rgb(68,68,68);stroke-width:1px;"></rect><g><text text-anchor="start" align="top" anchor="start" font-size="13px" font-weight="normal" fill="rgb(68, 68, 68)" style="font-size:13px;font-family:微软雅黑;color:rgb(68,68,68);font-style:normal;text-align:left;font-weight:normal;background-color:#FFCDD2;"><tspan x="1535" y="354"><tspan>Fusion 360</tspan></tspan></text></g></g><g id="5c660cb1c34f"><rect x="1640.5625" y="336.140625" rx="5px" ry="5px" width="447" height="25" style="fill: transparent; stroke:none;stroke-width:0px;"></rect><g><text text-anchor="start" align="top" anchor="start" font-size="13px" font-weight="normal" fill="rgb(68, 68, 68)" style="font-size:13px;font-family:微软雅黑;color:rgb(68,68,68);font-style:normal;text-align:left;font-weight:normal;"><tspan x="1650" y="354"><tspan>3D mechanical structure design, rapid simulation and derivative design</tspan></tspan></text></g></g><g id="0c7de47fcd17"><rect x="1525.265625" y="372" rx="5px" ry="5px" width="108" height="26" style="fill: #FFCDD2; stroke:rgb(68,68,68);stroke-width:1px;"></rect><g><text text-anchor="start" align="top" anchor="start" font-size="13px" font-weight="normal" fill="rgb(68, 68, 68)" style="font-size:13px;font-family:微软雅黑;color:rgb(68,68,68);font-style:normal;text-align:left;font-weight:normal;background-color:#FFCDD2;"><tspan x="1535" y="391"><tspan>Autodesk CAD</tspan></tspan></text></g></g><g id="9c0493f690f1"><rect x="1661.109375" y="373.140625" rx="5px" ry="5px" width="162" height="25" style="fill: transparent; stroke:none;stroke-width:0px;"></rect><g><text text-anchor="start" align="top" anchor="start" font-size="13px" font-weight="normal" fill="rgb(68, 68, 68)" style="font-size:13px;font-family:微软雅黑;color:rgb(68,68,68);font-style:normal;text-align:left;font-weight:normal;"><tspan x="1670" y="391"><tspan>2D engineering drawing</tspan></tspan></text></g></g><g id="922835a35b67"><rect x="1438.015625" y="503.140625" rx="5px" ry="5px" width="79" height="25" style="fill: transparent; stroke:none;stroke-width:0px;"></rect><g><text text-anchor="start" align="top" anchor="start" font-size="13px" font-weight="normal" fill="rgb(68, 68, 68)" style="font-size:13px;font-family:微软雅黑;color:rgb(68,68,68);font-style:normal;text-align:left;font-weight:normal;"><tspan x="1447" y="521"><tspan>simulation</tspan></tspan></text></g></g><g id="25559c23dbb9"><rect x="1545.46875" y="409" rx="5px" ry="5px" width="127" height="26" style="fill: #FFCDD2; stroke:rgb(68,68,68);stroke-width:1px;"></rect><g><text text-anchor="start" align="top" anchor="start" font-size="13px" font-weight="normal" fill="rgb(68, 68, 68)" style="font-size:13px;font-family:微软雅黑;color:rgb(68,68,68);font-style:normal;text-align:left;font-weight:normal;background-color:#FFCDD2;"><tspan x="1555" y="428"><tspan>Ansys Workbench</tspan></tspan></text></g></g><g id="de9f9ba3c357"><rect x="1700.953125" y="410.140625" rx="5px" ry="5px" width="374" height="25" style="fill: transparent; stroke:none;stroke-width:0px;"></rect><g><text text-anchor="start" align="top" anchor="start" font-size="13px" font-weight="normal" fill="rgb(68, 68, 68)" style="font-size:13px;font-family:微软雅黑;color:rgb(68,68,68);font-style:normal;text-align:left;font-weight:normal;"><tspan x="1710" y="428"><tspan>Static stress simulation, transient dynamics simulation, etc</tspan></tspan></text></g></g><g id="1ae5eee8f0d8"><rect x="1545.46875" y="446" rx="5px" ry="5px" width="97" height="26" style="fill: #B2EBF2; stroke:rgb(68,68,68);stroke-width:1px;"></rect><g><text text-anchor="start" align="top" anchor="start" font-size="13px" font-weight="normal" fill="rgb(68, 68, 68)" style="font-size:13px;font-family:微软雅黑;color:rgb(68,68,68);font-style:normal;text-align:left;font-weight:normal;background-color:#B2EBF2;"><tspan x="1555" y="465"><tspan>Ansys Fluent</tspan></tspan></text></g></g><g id="6c9023bb3560"><rect x="1670.125" y="447.140625" rx="5px" ry="5px" width="181" height="25" style="fill: transparent; stroke:none;stroke-width:0px;"></rect><g><text text-anchor="start" align="top" anchor="start" font-size="13px" font-weight="normal" fill="rgb(68, 68, 68)" style="font-size:13px;font-family:微软雅黑;color:rgb(68,68,68);font-style:normal;text-align:left;font-weight:normal;"><tspan x="1679" y="465"><tspan>Fluid mechanics simulation</tspan></tspan></text></g></g><g id="3ac9ac7f8bcf"><rect x="1545.46875" y="483" rx="5px" ry="5px" width="65" height="26" style="fill: #FFCDD2; stroke:rgb(68,68,68);stroke-width:1px;"></rect><g><text text-anchor="start" align="top" anchor="start" font-size="13px" font-weight="normal" fill="rgb(68, 68, 68)" style="font-size:13px;font-family:微软雅黑;color:rgb(68,68,68);font-style:normal;text-align:left;font-weight:normal;background-color:#FFCDD2;"><tspan x="1555" y="502"><tspan>Comsol</tspan></tspan></text></g></g><g id="26241d5d0fd6"><rect x="1638.90625" y="484.140625" rx="5px" ry="5px" width="364" height="25" style="fill: transparent; stroke:none;stroke-width:0px;"></rect><g><text text-anchor="start" align="top" anchor="start" font-size="13px" font-weight="normal" fill="rgb(68, 68, 68)" style="font-size:13px;font-family:微软雅黑;color:rgb(68,68,68);font-style:normal;text-align:left;font-weight:normal;"><tspan x="1648" y="502"><tspan>Simulation of force field, thermal field, and their coupling</tspan></tspan></text></g></g><g id="6ce8ea9d153c"><rect x="1545.46875" y="520" rx="5px" ry="5px" width="61" height="26" style="fill: #FFF9C4; stroke:rgb(68,68,68);stroke-width:1px;"></rect><g><text text-anchor="start" align="top" anchor="start" font-size="13px" font-weight="normal" fill="rgb(68, 68, 68)" style="font-size:13px;font-family:微软雅黑;color:rgb(68,68,68);font-style:normal;text-align:left;font-weight:normal;background-color:#FFF9C4;"><tspan x="1555" y="539"><tspan>Adams</tspan></tspan></text></g></g><g id="6e4c2483088a"><rect x="1634.578125" y="521.140625" rx="5px" ry="5px" width="277" height="25" style="fill: transparent; stroke:none;stroke-width:0px;"></rect><g><text text-anchor="start" align="top" anchor="start" font-size="13px" font-weight="normal" fill="rgb(68, 68, 68)" style="font-size:13px;font-family:微软雅黑;color:rgb(68,68,68);font-style:normal;text-align:left;font-weight:normal;"><tspan x="1644" y="539"><tspan>Robot kinematics and dynamics simulation</tspan></tspan></text></g></g><g id="bcf8a22e4989"><rect x="1545.46875" y="557" rx="5px" ry="5px" width="96" height="26" style="fill: #FFCDD2; stroke:rgb(68,68,68);stroke-width:1px;"></rect><g><text text-anchor="start" align="top" anchor="start" font-size="13px" font-weight="normal" fill="rgb(68, 68, 68)" style="font-size:13px;font-family:微软雅黑;color:rgb(68,68,68);font-style:normal;text-align:left;font-weight:normal;background-color:#FFCDD2;"><tspan x="1555" y="576"><tspan>Altair Inspire</tspan></tspan></text></g></g><g id="f99e3cf46e1a"><rect x="1669.171875" y="558.140625" rx="5px" ry="5px" width="127" height="25" style="fill: transparent; stroke:none;stroke-width:0px;"></rect><g><text text-anchor="start" align="top" anchor="start" font-size="13px" font-weight="normal" fill="rgb(68, 68, 68)" style="font-size:13px;font-family:微软雅黑;color:rgb(68,68,68);font-style:normal;text-align:left;font-weight:normal;"><tspan x="1678" y="576"><tspan>Generative design</tspan></tspan></text></g></g><g id="834908f62114"><rect x="1545.46875" y="594" rx="5px" ry="5px" width="74" height="26" style="fill: #FFF9C4; stroke:rgb(68,68,68);stroke-width:1px;"></rect><g><text text-anchor="start" align="top" anchor="start" font-size="13px" font-weight="normal" fill="rgb(68, 68, 68)" style="font-size:13px;font-family:微软雅黑;color:rgb(68,68,68);font-style:normal;text-align:left;font-weight:normal;background-color:#FFF9C4;"><tspan x="1555" y="613"><tspan>LabVIEW</tspan></tspan></text></g></g><g id="89ca58a82c8c"><rect x="1647.765625" y="595.140625" rx="5px" ry="5px" width="197" height="25" style="fill: transparent; stroke:none;stroke-width:0px;"></rect><g><text text-anchor="start" align="top" anchor="start" font-size="13px" font-weight="normal" fill="rgb(68, 68, 68)" style="font-size:13px;font-family:微软雅黑;color:rgb(68,68,68);font-style:normal;text-align:left;font-weight:normal;"><tspan x="1657" y="613"><tspan>Upper computer panel design</tspan></tspan></text></g></g><g id="6095425cb130"><rect x="1185.46875" y="94.640625" rx="6px" ry="6px" width="341" height="40" style="fill: rgb(223, 223, 223); stroke:rgb(102, 102, 102);stroke-width:0px;"></rect><g><text text-anchor="start" align="top" anchor="start" font-size="16px" font-weight="normal" fill="rgb(102, 102, 102)" style="font-size:16px;font-family:微软雅黑;color:rgb(102, 102, 102);font-style:normal;text-align:left;font-weight:normal;background-color:rgb(223, 223, 223);text-decoration:none;border-color:rgb(102, 102, 102);"><tspan x="1201" y="121"><tspan>Engineering data processing and analysis</tspan></tspan></text></g></g><g id="058c68db9825"><rect x="1554.390625" y="82.640625" rx="5px" ry="5px" width="61" height="26" style="fill: #FFCDD2; stroke:rgb(68,68,68);stroke-width:1px;"></rect><g><text text-anchor="start" align="top" anchor="start" font-size="13px" font-weight="normal" fill="rgb(68, 68, 68)" style="font-size:13px;font-family:微软雅黑;color:rgb(68,68,68);font-style:normal;text-align:left;font-weight:normal;background-color:#FFCDD2;"><tspan x="1564" y="101"><tspan>Matlab</tspan></tspan></text></g></g><g id="c2d9f18f3425"><rect x="1643.6875" y="30" rx="5px" ry="5px" width="186" height="25" style="fill: transparent; stroke:none;stroke-width:0px;"></rect><g><text text-anchor="start" align="top" anchor="start" font-size="13px" font-weight="normal" fill="rgb(68, 68, 68)" style="font-size:13px;font-family:微软雅黑;color:rgb(68,68,68);font-style:normal;text-align:left;font-weight:normal;"><tspan x="1653" y="48"><tspan>Data analysis chart drawing</tspan></tspan></text></g></g><g id="00dbba360e3d"><rect x="1643.6875" y="65" rx="5px" ry="5px" width="120" height="25" style="fill: transparent; stroke:none;stroke-width:0px;"></rect><g><text text-anchor="start" align="top" anchor="start" font-size="13px" font-weight="normal" fill="rgb(68, 68, 68)" style="font-size:13px;font-family:微软雅黑;color:rgb(68,68,68);font-style:normal;text-align:left;font-weight:normal;"><tspan x="1653" y="83"><tspan>Robotics toolbox</tspan></tspan></text></g></g><g id="fdb3bbc85008"><rect x="1643.6875" y="100" rx="5px" ry="5px" width="152" height="25" style="fill: transparent; stroke:none;stroke-width:0px;"></rect><g><text text-anchor="start" align="top" anchor="start" font-size="13px" font-weight="normal" fill="rgb(68, 68, 68)" style="font-size:13px;font-family:微软雅黑;color:rgb(68,68,68);font-style:normal;text-align:left;font-weight:normal;"><tspan x="1653" y="118"><tspan>Mechanism simulation</tspan></tspan></text></g></g><g id="73f3c89bf9eb"><rect x="1643.6875" y="135" rx="5px" ry="5px" width="125" height="25" style="fill: transparent; stroke:none;stroke-width:0px;"></rect><g><text text-anchor="start" align="top" anchor="start" font-size="13px" font-weight="normal" fill="rgb(68, 68, 68)" style="font-size:13px;font-family:微软雅黑;color:rgb(68,68,68);font-style:normal;text-align:left;font-weight:normal;"><tspan x="1653" y="153"><tspan>Signal processing</tspan></tspan></text></g></g><g id="2bbcd2a170b89114"><rect x="1554.390625" y="170" rx="5px" ry="5px" width="56" height="26" style="fill: #FFF9C4; stroke:rgb(68,68,68);stroke-width:1px;"></rect><g><text text-anchor="start" align="top" anchor="start" font-size="13px" font-weight="normal" fill="rgb(68, 68, 68)" style="font-size:13px;font-family:微软雅黑;color:rgb(68,68,68);font-style:normal;text-align:left;font-weight:normal;background-color:#FFF9C4;"><tspan x="1564" y="189"><tspan>Origin</tspan></tspan></text></g></g><g id="91eb72b2fa896a60"><rect x="1638.71875" y="171.640625" rx="5px" ry="5px" width="101" height="24" style="fill: transparent; stroke:none;stroke-width:0px;"></rect><g><text text-anchor="start" align="top" anchor="start" font-size="13px" font-weight="normal" fill="rgb(68, 68, 68)" style="font-size:13px;font-family:微软雅黑;color:rgb(68,68,68);font-style:normal;text-align:left;font-weight:normal;"><tspan x="1648" y="189"><tspan>Scientific plot</tspan></tspan></text></g></g><g id="9699a646e923"><rect x="30" y="360.140625" rx="5px" ry="5px" width="457" height="24" style="fill: transparent; stroke:none;stroke-width:0px;"></rect><g><text text-anchor="start" align="top" anchor="start" font-size="13px" font-weight="normal" fill="rgb(68, 68, 68)" style="font-size:13px;font-family:微软雅黑;color:rgb(68,68,68);font-style:normal;text-align:left;font-weight:normal;"><tspan x="39" y="378"><tspan>Targeted optimization design for different printing process requirements</tspan></tspan></text></g></g><g id="7cca58d3f469"><rect x="514.78125" y="358.5" rx="5px" ry="5px" width="87" height="26" style="fill: #FFCDD2; stroke:rgb(68,68,68);stroke-width:1px;"></rect><g><text text-anchor="start" align="top" anchor="start" font-size="13px" font-weight="normal" fill="rgb(68, 68, 68)" style="font-size:13px;font-family:微软雅黑;color:rgb(68,68,68);font-style:normal;text-align:left;font-weight:normal;background-color:#FFCDD2;"><tspan x="525" y="377"><tspan>3D printing</tspan></tspan></text></g></g><g id="43828d129e54"><rect x="161.125" y="396.140625" rx="5px" ry="5px" width="365" height="24" style="fill: transparent; stroke:none;stroke-width:0px;"></rect><g><text text-anchor="start" align="top" anchor="start" font-size="13px" font-weight="normal" fill="rgb(68, 68, 68)" style="font-size:13px;font-family:微软雅黑;color:rgb(68,68,68);font-style:normal;text-align:left;font-weight:normal;"><tspan x="170" y="414"><tspan>Knife path optimization design, design feasibility analysis</tspan></tspan></text></g></g><g id="592b9810977e"><rect x="553.671875" y="394.5" rx="5px" ry="5px" width="48" height="26" style="fill: #FFF9C4; stroke:rgb(68,68,68);stroke-width:1px;"></rect><g><text text-anchor="start" align="top" anchor="start" font-size="13px" font-weight="normal" fill="rgb(68, 68, 68)" style="font-size:13px;font-family:微软雅黑;color:rgb(68,68,68);font-style:normal;text-align:left;font-weight:normal;background-color:#FFF9C4;"><tspan x="564" y="413"><tspan>CNC</tspan></tspan></text></g></g><g id="fd46ff46ad9b"><rect x="236.5" y="432.140625" rx="5px" ry="5px" width="173" height="24" style="fill: transparent; stroke:none;stroke-width:0px;"></rect><g><text text-anchor="start" align="top" anchor="start" font-size="13px" font-weight="normal" fill="rgb(68, 68, 68)" style="font-size:13px;font-family:微软雅黑;color:rgb(68,68,68);font-style:normal;text-align:left;font-weight:normal;"><tspan x="246" y="450"><tspan>Design feasibility analysis</tspan></tspan></text></g></g><g id="c059f383a8ec"><rect x="437.78125" y="430.5" rx="5px" ry="5px" width="164" height="26" style="fill: #FFF9C4; stroke:rgb(68,68,68);stroke-width:1px;"></rect><g><text text-anchor="start" align="top" anchor="start" font-size="13px" font-weight="normal" fill="rgb(68, 68, 68)" style="font-size:13px;font-family:微软雅黑;color:rgb(68,68,68);font-style:normal;text-align:left;font-weight:normal;background-color:#FFF9C4;"><tspan x="448" y="449"><tspan>Conventional machining</tspan></tspan></text></g></g><g id="fd4fa8c2d8e5"><rect x="629.953125" y="389.140625" rx="6px" ry="6px" width="248" height="40" style="fill: rgb(223, 223, 223); stroke:rgb(102, 102, 102);stroke-width:0px;"></rect><g><text text-anchor="start" align="top" anchor="start" font-size="16px" font-weight="normal" fill="rgb(102, 102, 102)" style="font-size:16px;font-family:微软雅黑;color:rgb(102, 102, 102);font-style:normal;text-align:left;font-weight:normal;background-color:rgb(223, 223, 223);text-decoration:none;border-color:rgb(102, 102, 102);"><tspan x="646" y="415"><tspan>Engineering processing skills</tspan></tspan></text></g></g><g id="ff02cfe0a239"><rect x="397.25" y="161.640625" rx="5px" ry="5px" width="278" height="25" style="fill: transparent; stroke:none;stroke-width:0px;"></rect><g><text text-anchor="start" align="top" anchor="start" font-size="13px" font-weight="normal" fill="rgb(68, 68, 68)" style="font-size:13px;font-family:微软雅黑;color:rgb(68,68,68);font-style:normal;text-align:left;font-weight:normal;"><tspan x="406" y="179"><tspan>ROS, script design, simulation visualization</tspan></tspan></text></g></g><g id="def41a909674"><rect x="703.03125" y="160.5" rx="5px" ry="5px" width="62" height="26" style="fill: #FFCDD2; stroke:rgb(68,68,68);stroke-width:1px;"></rect><g><text text-anchor="start" align="top" anchor="start" font-size="13px" font-weight="normal" fill="rgb(68, 68, 68)" style="font-size:13px;font-family:微软雅黑;color:rgb(68,68,68);font-style:normal;text-align:left;font-weight:normal;background-color:#FFCDD2;"><tspan x="713" y="179"><tspan>Python</tspan></tspan></text></g></g><g id="6335858b3fef"><rect x="315.78125" y="197.640625" rx="5px" ry="5px" width="376" height="25" style="fill: transparent; stroke:none;stroke-width:0px;"></rect><g><text text-anchor="start" align="top" anchor="start" font-size="13px" font-weight="normal" fill="rgb(68, 68, 68)" style="font-size:13px;font-family:微软雅黑;color:rgb(68,68,68);font-style:normal;text-align:left;font-weight:normal;"><tspan x="325" y="215"><tspan>MCU program development, Unreal Engine program design</tspan></tspan></text></g></g><g id="a388c9531d1e"><rect x="719.359375" y="196.5" rx="5px" ry="5px" width="45" height="26" style="fill: #FFF9C4; stroke:rgb(68,68,68);stroke-width:1px;"></rect><g><text text-anchor="start" align="top" anchor="start" font-size="13px" font-weight="normal" fill="rgb(68, 68, 68)" style="font-size:13px;font-family:微软雅黑;color:rgb(68,68,68);font-style:normal;text-align:left;font-weight:normal;background-color:#FFF9C4;"><tspan x="729" y="215"><tspan>C++</tspan></tspan></text></g></g><g id="c67d296e9c06"><rect x="541.796875" y="233.640625" rx="5px" ry="5px" width="155" height="25" style="fill: transparent; stroke:none;stroke-width:0px;"></rect><g><text text-anchor="start" align="top" anchor="start" font-size="13px" font-weight="normal" fill="rgb(68, 68, 68)" style="font-size:13px;font-family:微软雅黑;color:rgb(68,68,68);font-style:normal;text-align:left;font-weight:normal;"><tspan x="551" y="251"><tspan>Unity 3D programming</tspan></tspan></text></g></g><g id="35fc9367b684"><rect x="724.5625" y="232.5" rx="5px" ry="5px" width="40" height="26" style="fill: #B2EBF2; stroke:rgb(68,68,68);stroke-width:1px;"></rect><g><text text-anchor="start" align="top" anchor="start" font-size="13px" font-weight="normal" fill="rgb(68, 68, 68)" style="font-size:13px;font-family:微软雅黑;color:rgb(68,68,68);font-style:normal;text-align:left;font-weight:normal;background-color:#B2EBF2;"><tspan x="735" y="251"><tspan>C#</tspan></tspan></text></g></g><g id="d7c316e208133e54"><rect x="365.96875" y="270.140625" rx="5px" ry="5px" width="331" height="24" style="fill: transparent; stroke:none;stroke-width:0px;"></rect><g><text text-anchor="start" align="top" anchor="start" font-size="13px" font-weight="normal" fill="rgb(68, 68, 68)" style="font-size:13px;font-family:微软雅黑;color:rgb(68,68,68);font-style:normal;text-align:left;font-weight:normal;"><tspan x="375" y="288"><tspan>Program development based on keil microcontroller</tspan></tspan></text></g></g><g id="43fcf4b731f395d7"><rect x="724.5625" y="268.5" rx="5px" ry="5px" width="40" height="26" style="fill: #FFF9C4; stroke:rgb(68,68,68);stroke-width:1px;"></rect><g><text text-anchor="start" align="top" anchor="start" font-size="13px" font-weight="normal" fill="rgb(68, 68, 68)" style="font-size:13px;font-family:微软雅黑;color:rgb(68,68,68);font-style:normal;text-align:left;font-weight:normal;background-color:#FFF9C4;"><tspan x="735" y="287"><tspan>C</tspan></tspan></text></g></g><g id="4d08a34b6256656b"><rect x="472.75" y="306.140625" rx="5px" ry="5px" width="181" height="24" style="fill: transparent; stroke:none;stroke-width:0px;"></rect><g><text text-anchor="start" align="top" anchor="start" font-size="13px" font-weight="normal" fill="rgb(68, 68, 68)" style="font-size:13px;font-family:微软雅黑;color:rgb(68,68,68);font-style:normal;text-align:left;font-weight:normal;"><tspan x="482" y="324"><tspan>Rich text document writing</tspan></tspan></text></g></g><g id="3a3e49a50123cbdc"><rect x="681.875" y="304.5" rx="5px" ry="5px" width="83" height="26" style="fill: #FFCDD2; stroke:rgb(68,68,68);stroke-width:1px;"></rect><g><text text-anchor="start" align="top" anchor="start" font-size="13px" font-weight="normal" fill="rgb(68, 68, 68)" style="font-size:13px;font-family:微软雅黑;color:rgb(68,68,68);font-style:normal;text-align:left;font-weight:normal;background-color:#FFCDD2;"><tspan x="692" y="323"><tspan>Markdown</tspan></tspan></text></g></g><g id="ad11c30aba77"><rect x="792.5625" y="227.140625" rx="6px" ry="6px" width="85" height="40" style="fill: rgb(223, 223, 223); stroke:rgb(102, 102, 102);stroke-width:0px;"></rect><g><text text-anchor="start" align="top" anchor="start" font-size="16px" font-weight="normal" fill="rgb(102, 102, 102)" style="font-size:16px;font-family:微软雅黑;color:rgb(102, 102, 102);font-style:normal;text-align:left;font-weight:normal;background-color:rgb(223, 223, 223);text-decoration:none;border-color:rgb(102, 102, 102);"><tspan x="809" y="253"><tspan>Coding</tspan></tspan></text></g></g><g transform="translate(500.21875, 484.5)" id="sdjakdjak0"><g id="subline_8050305c4d86e317" transform="translate(0.5, 0.5)"><path id="line_05cec1d7c26dd2cb" d="M 258.78125 50 L 241 50 L 241 31 A 4 4 0 0 0 237 27 L 16.8125 27" p="8050305c4d86e317" stroke="#cccdcd" fill="none" stroke-linecap="square" stroke-width="1"></path><path id="line_7e92bfdd0bb716be" d="M 258.78125 50 L 241 50 L 241 63 L 0 63" p="8050305c4d86e317" stroke="#cccdcd" fill="none" stroke-linecap="square" stroke-width="1"></path><path id="line_a6c4b30ad038986c" d="M 258.78125 50 L 241 50 L 241 95 A 4 4 0 0 1 237 99 L 172.5625 99" p="8050305c4d86e317" stroke="#cccdcd" fill="none" stroke-linecap="square" stroke-width="1"></path></g><g transform="translate(0.5,0.5)"></g><g class="svg-summary-con" transform="translate(0.5,0.5)"></g><g class="svg-boundary-con" transform="translate(0.5,0.5)"></g></g><g transform="translate(1185.46875, 649)" id="sdjakdjak1"><g id="subline_888f517c137c" transform="translate(0.5, 0.5)"><path id="line_f53befef6567" d="M 157.59375 33 L 176 33 L 176 31 A 4 4 0 0 1 180 27 L 237.59375 27" p="888f517c137c" stroke="#cccdcd" fill="none" stroke-linecap="square" stroke-width="1"></path><path id="line_c114fc9f59b7" d="M 237.875 27 L 256 27 L 256 27.140625 L 544.875 27.140625" p="f53befef6567" stroke="#cccdcd" fill="none" stroke-linecap="square" stroke-width="1"></path><path id="line_59a68d2dedd0" d="M 157.59375 33 L 176 33 L 176 64 L 299.59375 64" p="888f517c137c" stroke="#cccdcd" fill="none" stroke-linecap="square" stroke-width="1"></path><path id="line_77ba4958317f" d="M 299.5 64 L 318 64 L 318 64.140625 L 618.5 64.140625" p="59a68d2dedd0" stroke="#cccdcd" fill="none" stroke-linecap="square" stroke-width="1"></path></g><g transform="translate(0.5,0.5)"></g><g class="svg-summary-con" transform="translate(0.5,0.5)"></g><g class="svg-boundary-con" transform="translate(0.5,0.5)"></g></g><g transform="translate(1185.46875, 224)" id="sdjakdjak2"><g id="subline_7cc10fc86fcc" transform="translate(0.5, 0.5)"><path id="line_2cbb4037259b" d="M 224.546875 199.5 L 243 199.5 L 243 105.140625 A 4 4 0 0 1 247 101.140625 L 311.546875 101.140625" p="7cc10fc86fcc" stroke="#cccdcd" fill="none" stroke-linecap="square" stroke-width="1"></path><path id="line_f897c0862c09" d="M 311.796875 101.140625 L 330 101.140625 L 330 31 A 4 4 0 0 1 334 27 L 424.796875 27" p="2cbb4037259b" stroke="#cccdcd" fill="none" stroke-linecap="square" stroke-width="1"></path><path id="line_6b6c9f14ded7" d="M 425.265625 27 L 444 27 L 444 27.140625 L 769.265625 27.140625" p="f897c0862c09" stroke="#cccdcd" fill="none" stroke-linecap="square" stroke-width="1"></path><path id="line_35a76a8de912" d="M 311.796875 101.140625 L 330 101.140625 L 330 68 A 4 4 0 0 1 334 64 L 393.796875 64" p="2cbb4037259b" stroke="#cccdcd" fill="none" stroke-linecap="square" stroke-width="1"></path><path id="line_7e735485865f" d="M 394.03125 64 L 413 64 L 413 64.140625 L 586.03125 64.140625" p="35a76a8de912" stroke="#cccdcd" fill="none" stroke-linecap="square" stroke-width="1"></path><path id="line_0c15c27b0087" d="M 311.796875 101.140625 L 330 101.140625 L 330 101 L 388.796875 101" p="2cbb4037259b" stroke="#cccdcd" fill="none" stroke-linecap="square" stroke-width="1"></path><path id="line_af96b5e8beaf" d="M 388.84375 101 L 407 101 L 407 101.140625 L 626.84375 101.140625" p="0c15c27b0087" stroke="#cccdcd" fill="none" stroke-linecap="square" stroke-width="1"></path><path id="line_552f6cec185c" d="M 311.796875 101.140625 L 330 101.140625 L 330 134 A 4 4 0 0 0 334 138 L 426.796875 138" p="2cbb4037259b" stroke="#cccdcd" fill="none" stroke-linecap="square" stroke-width="1"></path><path id="line_5c660cb1c34f" d="M 427.09375 138 L 446 138 L 446 138.140625 L 902.09375 138.140625" p="552f6cec185c" stroke="#cccdcd" fill="none" stroke-linecap="square" stroke-width="1"></path><path id="line_0c7de47fcd17" d="M 311.796875 101.140625 L 330 101.140625 L 330 171 A 4 4 0 0 0 334 175 L 447.796875 175" p="2cbb4037259b" stroke="#cccdcd" fill="none" stroke-linecap="square" stroke-width="1"></path><path id="line_9c0493f690f1" d="M 447.640625 175 L 466 175 L 466 175.140625 L 637.640625 175.140625" p="0c7de47fcd17" stroke="#cccdcd" fill="none" stroke-linecap="square" stroke-width="1"></path><path id="line_922835a35b67" d="M 224.546875 199.5 L 243 199.5 L 243 301.140625 A 4 4 0 0 0 247 305.140625 L 331.546875 305.140625" p="7cc10fc86fcc" stroke="#cccdcd" fill="none" stroke-linecap="square" stroke-width="1"></path><path id="line_25559c23dbb9" d="M 332 305.140625 L 350 305.140625 L 350 216 A 4 4 0 0 1 354 212 L 487 212" p="922835a35b67" stroke="#cccdcd" fill="none" stroke-linecap="square" stroke-width="1"></path><path id="line_de9f9ba3c357" d="M 487.484375 212 L 506 212 L 506 212.140625 L 889.484375 212.140625" p="25559c23dbb9" stroke="#cccdcd" fill="none" stroke-linecap="square" stroke-width="1"></path><path id="line_1ae5eee8f0d8" d="M 332 305.140625 L 350 305.140625 L 350 253 A 4 4 0 0 1 354 249 L 457 249" p="922835a35b67" stroke="#cccdcd" fill="none" stroke-linecap="square" stroke-width="1"></path><path id="line_6c9023bb3560" d="M 456.65625 249 L 475 249 L 475 249.140625 L 665.65625 249.140625" p="1ae5eee8f0d8" stroke="#cccdcd" fill="none" stroke-linecap="square" stroke-width="1"></path><path id="line_3ac9ac7f8bcf" d="M 332 305.140625 L 350 305.140625 L 350 286 L 425 286" p="922835a35b67" stroke="#cccdcd" fill="none" stroke-linecap="square" stroke-width="1"></path><path id="line_26241d5d0fd6" d="M 425.4375 286 L 444 286 L 444 286.140625 L 817.4375 286.140625" p="3ac9ac7f8bcf" stroke="#cccdcd" fill="none" stroke-linecap="square" stroke-width="1"></path><path id="line_6ce8ea9d153c" d="M 332 305.140625 L 350 305.140625 L 350 323 L 421 323" p="922835a35b67" stroke="#cccdcd" fill="none" stroke-linecap="square" stroke-width="1"></path><path id="line_6e4c2483088a" d="M 421.109375 323 L 440 323 L 440 323.140625 L 726.109375 323.140625" p="6ce8ea9d153c" stroke="#cccdcd" fill="none" stroke-linecap="square" stroke-width="1"></path><path id="line_bcf8a22e4989" d="M 332 305.140625 L 350 305.140625 L 350 356 A 4 4 0 0 0 354 360 L 456 360" p="922835a35b67" stroke="#cccdcd" fill="none" stroke-linecap="square" stroke-width="1"></path><path id="line_f99e3cf46e1a" d="M 455.703125 360 L 474 360 L 474 360.140625 L 610.703125 360.140625" p="bcf8a22e4989" stroke="#cccdcd" fill="none" stroke-linecap="square" stroke-width="1"></path><path id="line_834908f62114" d="M 332 305.140625 L 350 305.140625 L 350 393 A 4 4 0 0 0 354 397 L 434 397" p="922835a35b67" stroke="#cccdcd" fill="none" stroke-linecap="square" stroke-width="1"></path><path id="line_89ca58a82c8c" d="M 434.296875 397 L 453 397 L 453 397.140625 L 659.296875 397.140625" p="834908f62114" stroke="#cccdcd" fill="none" stroke-linecap="square" stroke-width="1"></path></g><g transform="translate(0.5,0.5)"></g><g class="svg-summary-con" transform="translate(0.5,0.5)"></g><g class="svg-boundary-con" transform="translate(0.5,0.5)"></g></g><g transform="translate(1185.46875, 30)" id="sdjakdjak3"><g id="subline_6095425cb130" transform="translate(0.5, 0.5)"><path id="line_058c68db9825" d="M 340.921875 84 L 359 84 L 359 83.640625 A 4 4 0 0 1 363 79.640625 L 429.921875 79.640625" p="6095425cb130" stroke="#cccdcd" fill="none" stroke-linecap="square" stroke-width="1"></path><path id="line_c2d9f18f3425" d="M 430.21875 79.640625 L 449 79.640625 L 449 30 A 4 4 0 0 1 453 26 L 644.21875 26" p="058c68db9825" stroke="#cccdcd" fill="none" stroke-linecap="square" stroke-width="1"></path><path id="line_00dbba360e3d" d="M 430.21875 79.640625 L 449 79.640625 L 449 61 L 578.21875 61" p="058c68db9825" stroke="#cccdcd" fill="none" stroke-linecap="square" stroke-width="1"></path><path id="line_fdb3bbc85008" d="M 430.21875 79.640625 L 449 79.640625 L 449 96 L 610.21875 96" p="058c68db9825" stroke="#cccdcd" fill="none" stroke-linecap="square" stroke-width="1"></path><path id="line_73f3c89bf9eb" d="M 430.21875 79.640625 L 449 79.640625 L 449 127 A 4 4 0 0 0 453 131 L 583.21875 131" p="058c68db9825" stroke="#cccdcd" fill="none" stroke-linecap="square" stroke-width="1"></path><path id="line_2bbcd2a170b89114" d="M 340.921875 84 L 359 84 L 359 163 A 4 4 0 0 0 363 167 L 424.921875 167" p="6095425cb130" stroke="#cccdcd" fill="none" stroke-linecap="square" stroke-width="1"></path><path id="line_91eb72b2fa896a60" d="M 425.25 167 L 444 167 L 444 166.640625 L 554.25 166.640625" p="2bbcd2a170b89114" stroke="#cccdcd" fill="none" stroke-linecap="square" stroke-width="1"></path></g><g transform="translate(0.5,0.5)"></g><g class="svg-summary-con" transform="translate(0.5,0.5)"></g><g class="svg-boundary-con" transform="translate(0.5,0.5)"></g></g><g transform="translate(30, 358.5)" id="sdjakdjak4"><g id="subline_fd4fa8c2d8e5" transform="translate(0.5, 0.5)"><path id="line_7cca58d3f469" d="M 599.484375 50 L 582 50 L 582 31 A 4 4 0 0 0 578 27 L 484.78125 27" p="fd4fa8c2d8e5" stroke="#cccdcd" fill="none" stroke-linecap="square" stroke-width="1"></path><path id="line_9699a646e923" d="M 484.78125 27 L 467 27 L 467 26.640625 L 0 26.640625" p="7cca58d3f469" stroke="#cccdcd" fill="none" stroke-linecap="square" stroke-width="1"></path><path id="line_592b9810977e" d="M 599.484375 50 L 582 50 L 582 63 L 523.671875 63" p="fd4fa8c2d8e5" stroke="#cccdcd" fill="none" stroke-linecap="square" stroke-width="1"></path><path id="line_43828d129e54" d="M 523.671875 63 L 506 63 L 506 62.640625 L 131.125 62.640625" p="592b9810977e" stroke="#cccdcd" fill="none" stroke-linecap="square" stroke-width="1"></path><path id="line_c059f383a8ec" d="M 599.484375 50 L 582 50 L 582 95 A 4 4 0 0 1 578 99 L 407.78125 99" p="fd4fa8c2d8e5" stroke="#cccdcd" fill="none" stroke-linecap="square" stroke-width="1"></path><path id="line_fd46ff46ad9b" d="M 407.78125 99 L 390 99 L 390 98.640625 L 206.5 98.640625" p="c059f383a8ec" stroke="#cccdcd" fill="none" stroke-linecap="square" stroke-width="1"></path></g><g transform="translate(0.5,0.5)"></g><g class="svg-summary-con" transform="translate(0.5,0.5)"></g><g class="svg-boundary-con" transform="translate(0.5,0.5)"></g></g><g transform="translate(315.78125, 160.5)" id="sdjakdjak5"><g id="subline_ad11c30aba77" transform="translate(0.5, 0.5)"><path id="line_def41a909674" d="M 477.09375 86 L 460 86 L 460 31 A 4 4 0 0 0 456 27 L 387.25 27" p="ad11c30aba77" stroke="#cccdcd" fill="none" stroke-linecap="square" stroke-width="1"></path><path id="line_ff02cfe0a239" d="M 387.25 27 L 370 27 L 370 27.140625 L 81.46875 27.140625" p="def41a909674" stroke="#cccdcd" fill="none" stroke-linecap="square" stroke-width="1"></path><path id="line_a388c9531d1e" d="M 477.09375 86 L 460 86 L 460 67 A 4 4 0 0 0 456 63 L 403.578125 63" p="ad11c30aba77" stroke="#cccdcd" fill="none" stroke-linecap="square" stroke-width="1"></path><path id="line_6335858b3fef" d="M 403.578125 63 L 386 63 L 386 63.140625 L 0 63.140625" p="a388c9531d1e" stroke="#cccdcd" fill="none" stroke-linecap="square" stroke-width="1"></path><path id="line_35fc9367b684" d="M 477.09375 86 L 460 86 L 460 99 L 408.78125 99" p="ad11c30aba77" stroke="#cccdcd" fill="none" stroke-linecap="square" stroke-width="1"></path><path id="line_c67d296e9c06" d="M 408.78125 99 L 391 99 L 391 99.140625 L 226.015625 99.140625" p="35fc9367b684" stroke="#cccdcd" fill="none" stroke-linecap="square" stroke-width="1"></path><path id="line_43fcf4b731f395d7" d="M 477.09375 86 L 460 86 L 460 131 A 4 4 0 0 1 456 135 L 408.78125 135" p="ad11c30aba77" stroke="#cccdcd" fill="none" stroke-linecap="square" stroke-width="1"></path><path id="line_d7c316e208133e54" d="M 408.78125 135 L 391 135 L 391 134.640625 L 50.1875 134.640625" p="43fcf4b731f395d7" stroke="#cccdcd" fill="none" stroke-linecap="square" stroke-width="1"></path><path id="line_3a3e49a50123cbdc" d="M 477.09375 86 L 460 86 L 460 167 A 4 4 0 0 1 456 171 L 366.09375 171" p="ad11c30aba77" stroke="#cccdcd" fill="none" stroke-linecap="square" stroke-width="1"></path><path id="line_4d08a34b6256656b" d="M 366.09375 171 L 349 171 L 349 170.640625 L 156.96875 170.640625" p="3a3e49a50123cbdc" stroke="#cccdcd" fill="none" stroke-linecap="square" stroke-width="1"></path></g><g transform="translate(0.5,0.5)"></g><g class="svg-summary-con" transform="translate(0.5,0.5)"></g><g class="svg-boundary-con" transform="translate(0.5,0.5)"></g></g><g transform="translate(957.46875, 343.5)" id="sdjakdjak6"><g id="subline_root" transform="translate(0.5, 0.5)"></g><g transform="translate(0.5,0.5)"></g><g class="svg-summary-con" transform="translate(0.5,0.5)"></g><g class="svg-boundary-con" transform="translate(0.5,0.5)"></g></g><g transform="translate(195.46875, 620)" id="sdjakdjak8"><g id="subline_9e58ee599ae8" transform="translate(0.5, 0.5)"><path id="line_d0b9387d9c20" d="M 129.796875 51.5 L 148 51.5 L 148 31 A 4 4 0 0 1 152 27 L 235.796875 27" p="9e58ee599ae8" stroke="#cccdcd" fill="none" stroke-linecap="square" stroke-width="1"></path><path id="line_9095cfacf712" d="M 235.953125 27 L 254 27 L 254 27.140625 L 533.953125 27.140625" p="d0b9387d9c20" stroke="#cccdcd" fill="none" stroke-linecap="square" stroke-width="1"></path><path id="line_a39791f320ce" d="M 129.796875 51.5 L 148 51.5 L 148 64 L 225.796875 64" p="9e58ee599ae8" stroke="#cccdcd" fill="none" stroke-linecap="square" stroke-width="1"></path><path id="line_98eebe3e5075" d="M 225.40625 64 L 244 64 L 244 64.140625 L 771.40625 64.140625" p="a39791f320ce" stroke="#cccdcd" fill="none" stroke-linecap="square" stroke-width="1"></path><path id="line_b15c344a8d7e" d="M 129.796875 51.5 L 148 51.5 L 148 97 A 4 4 0 0 0 152 101 L 238.796875 101" p="9e58ee599ae8" stroke="#cccdcd" fill="none" stroke-linecap="square" stroke-width="1"></path><path id="line_74b11f49bb69" d="M 238.640625 101 L 257 101 L 257 101.140625 L 679.640625 101.140625" p="b15c344a8d7e" stroke="#cccdcd" fill="none" stroke-linecap="square" stroke-width="1"></path></g><g transform="translate(0.5,0.5)"></g><g class="svg-summary-con" transform="translate(0.5,0.5)"></g><g class="svg-boundary-con" transform="translate(0.5,0.5)"></g></g><g id="root"><rect x="957.46875" y="343.5" rx="6px" ry="6px" width="148" height="58" style="fill: rgb(149,218,105); stroke:rgb(255, 255, 255);stroke-width:0px;"></rect><g><text text-anchor="start" align="top" anchor="start" font-size="25px" font-weight="normal" fill="rgb(242, 242, 242)" style="font-size:25px;font-family:微软雅黑;color:rgb(242,242,242);font-style:normal;text-align:left;font-weight:normal;background-color:rgb(149,218,105);text-decoration:none;border-color:rgb(255, 255, 255);"><tspan x="977" y="381"><tspan>Skill Tree</tspan></tspan></text></g></g><g id="9e58ee599ae8"><rect x="195.46875" y="651.640625" rx="6px" ry="6px" width="130" height="40" style="fill: rgb(149,218,105); stroke:rgb(255, 255, 255);stroke-width:0px;"></rect><g><text text-anchor="start" align="top" anchor="start" font-size="16px" font-weight="normal" fill="rgb(242, 242, 242)" style="font-size:16px;font-family:微软雅黑;color:rgb(242,242,242);font-style:normal;text-align:left;font-weight:normal;background-color:rgb(149,218,105);text-decoration:none;border-color:rgb(255, 255, 255);"><tspan x="211" y="678"><tspan>Mastery level</tspan></tspan></text></g></g><g id="d0b9387d9c20"><rect x="353.265625" y="620" rx="5px" ry="5px" width="78" height="26" style="fill: #FFCDD2; stroke:rgb(68,68,68);stroke-width:1px;"></rect><g><text text-anchor="start" align="top" anchor="start" font-size="13px" font-weight="normal" fill="rgb(68, 68, 68)" style="font-size:13px;font-family:微软雅黑;color:rgb(68,68,68);font-style:normal;text-align:left;font-weight:normal;background-color:#FFCDD2;"><tspan x="363" y="639"><tspan>Proficient</tspan></tspan></text></g></g><g id="9095cfacf712"><rect x="459.421875" y="621.140625" rx="5px" ry="5px" width="270" height="25" style="fill: transparent; stroke:none;stroke-width:0px;"></rect><g><text text-anchor="start" align="top" anchor="start" font-size="13px" font-weight="normal" fill="rgb(68, 68, 68)" style="font-size:13px;font-family:微软雅黑;color:rgb(68,68,68);font-style:normal;text-align:left;font-weight:normal;"><tspan x="468" y="639"><tspan>Efficiently complete without any guidance</tspan></tspan></text></g></g><g id="a39791f320ce"><rect x="353.265625" y="657" rx="5px" ry="5px" width="68" height="26" style="fill: #FFF9C4; stroke:rgb(68,68,68);stroke-width:1px;"></rect><g><text text-anchor="start" align="top" anchor="start" font-size="13px" font-weight="normal" fill="rgb(68, 68, 68)" style="font-size:13px;font-family:微软雅黑;color:rgb(68,68,68);font-style:normal;text-align:left;font-weight:normal;background-color:#FFF9C4;"><tspan x="363" y="676"><tspan>Familiar</tspan></tspan></text></g></g><g id="98eebe3e5075"><rect x="448.875" y="658.140625" rx="5px" ry="5px" width="518" height="25" style="fill: transparent; stroke:none;stroke-width:0px;"></rect><g><text text-anchor="start" align="top" anchor="start" font-size="13px" font-weight="normal" fill="rgb(68, 68, 68)" style="font-size:13px;font-family:微软雅黑;color:rgb(68,68,68);font-style:normal;text-align:left;font-weight:normal;"><tspan x="458" y="676"><tspan>Proficient in development under the guidance of a small amount of documentation</tspan></tspan></text></g></g><g id="b15c344a8d7e"><rect x="353.265625" y="694" rx="5px" ry="5px" width="81" height="26" style="fill: #B2EBF2; stroke:rgb(68,68,68);stroke-width:1px;"></rect><g><text text-anchor="start" align="top" anchor="start" font-size="13px" font-weight="normal" fill="rgb(68, 68, 68)" style="font-size:13px;font-family:微软雅黑;color:rgb(68,68,68);font-style:normal;text-align:left;font-weight:normal;background-color:#B2EBF2;"><tspan x="363" y="713"><tspan>Cognizant</tspan></tspan></text></g></g><g id="74b11f49bb69"><rect x="462.109375" y="695.140625" rx="5px" ry="5px" width="413" height="25" style="fill: transparent; stroke:none;stroke-width:0px;"></rect><g><text text-anchor="start" align="top" anchor="start" font-size="13px" font-weight="normal" fill="rgb(68, 68, 68)" style="font-size:13px;font-family:微软雅黑;color:rgb(68,68,68);font-style:normal;text-align:left;font-weight:normal;"><tspan x="471" y="713"><tspan>Need to undergo a brief learning review before engaging in tasks</tspan></tspan></text></g></g></svg>