<svg xmlns="http://www.w3.org/2000/svg" xlink="http://www.w3.org/1999/xlink" id="mind-svg-view-con" version="1.1" width="1190.09375px" height="1325.5px" style="position: absolute; left: 0px; top: 0px; width: 1190.09375px; height: 1325.5px; background-color: rgb(248, 249, 248); z-index: 999;"><defs></defs><g id="svgbackgroundid"><defs></defs><rect x="0" y="0" width="1190.09375" height="1325.5" fill="#f8f9f8"></rect></g><g transform="translate(-9896, -9352.5)" id="sdjakdjak7"><defs></defs><g class="svg-topic-con" transform="translate(0.5,0.5)"><path part="right" sub="true" id="line_6095425cb130" d="M 10000 9941.5 C 10000 9941.5 10010 9464.5 10154 9464.5" stroke="#cccdcd" fill="none" stroke-width="2"></path><path part="right" sub="true" id="line_7cc10fc86fcc" d="M 10000 9941.5 C 10000 9941.5 10010 9766.5 10154 9766.5" stroke="#cccdcd" fill="none" stroke-width="2"></path><path part="right" sub="true" id="line_888f517c137c" d="M 10000 9941.5 C 10000 9941.5 10010 10018.5 10154 10018.5" stroke="#cccdcd" fill="none" stroke-width="2"></path><path part="right" sub="true" id="line_ad11c30aba77" d="M 10000 9941.5 C 10000 9941.5 10010 10162.5 10154 10162.5" stroke="#cccdcd" fill="none" stroke-width="2"></path><path part="right" sub="true" id="line_fd4fa8c2d8e5" d="M 10000 9941.5 C 10000 9941.5 10010 10324.5 10154 10324.5" stroke="#cccdcd" fill="none" stroke-width="2"></path><path part="right" sub="true" id="line_8050305c4d86e317" d="M 10000 9941.5 C 10000 9941.5 10010 10450.5 10154 10450.5" stroke="#cccdcd" fill="none" stroke-width="2"></path></g><g class="svg-connection-con" transform="translate(0.5,0.5)"></g><g class="svg-freesums-con" transform="translate(0.5,0.5)"></g><g class="svg-freebos-con" transform="translate(0.5,0.5)"></g></g><g id="8050305c4d86e317"><rect x="258" y="1078.640625" rx="6px" ry="6px" width="118" height="40" style="fill: rgb(223, 223, 223); stroke:rgb(102, 102, 102);stroke-width:0px;"></rect><g><text text-anchor="start" align="top" anchor="start" font-size="16px" font-weight="normal" fill="rgb(102, 102, 102)" style="font-size:16px;font-family:微软雅黑;color:rgb(102, 102, 102);font-style:normal;text-align:left;font-weight:normal;background-color:rgb(223, 223, 223);text-decoration:none;border-color:rgb(102, 102, 102);"><tspan x="274" y="1105"><tspan>Office skills</tspan></tspan></text></g></g><g id="05cec1d7c26dd2cb"><rect x="404.21875" y="1048" rx="5px" ry="5px" width="214" height="26" style="fill: #FFCDD2; stroke:rgb(68,68,68);stroke-width:1px;"></rect><g><text text-anchor="start" align="top" anchor="start" font-size="13px" font-weight="normal" fill="rgb(68, 68, 68)" style="font-size:13px;font-family:微软雅黑;color:rgb(68,68,68);font-style:normal;text-align:left;font-weight:normal;background-color:#FFCDD2;"><tspan x="414" y="1067"><tspan>Apple Keynote, Numbers, Pages</tspan></tspan></text></g></g><g id="7e92bfdd0bb716be"><rect x="404.21875" y="1084" rx="5px" ry="5px" width="231" height="26" style="fill: #FFCDD2; stroke:rgb(68,68,68);stroke-width:1px;"></rect><g><text text-anchor="start" align="top" anchor="start" font-size="13px" font-weight="normal" fill="rgb(68, 68, 68)" style="font-size:13px;font-family:微软雅黑;color:rgb(68,68,68);font-style:normal;text-align:left;font-weight:normal;background-color:#FFCDD2;"><tspan x="414" y="1103"><tspan>Microsoft PowerPoint, Excel, Word</tspan></tspan></text></g></g><g id="a6c4b30ad038986c"><rect x="404.21875" y="1120" rx="5px" ry="5px" width="58" height="26" style="fill: #FFF9C4; stroke:rgb(68,68,68);stroke-width:1px;"></rect><g><text text-anchor="start" align="top" anchor="start" font-size="13px" font-weight="normal" fill="rgb(68, 68, 68)" style="font-size:13px;font-family:微软雅黑;color:rgb(68,68,68);font-style:normal;text-align:left;font-weight:normal;background-color:#FFF9C4;"><tspan x="414" y="1139"><tspan>LaTeX</tspan></tspan></text></g></g><g id="fd4fa8c2d8e5"><rect x="258" y="952.640625" rx="6px" ry="6px" width="248" height="40" style="fill: rgb(223, 223, 223); stroke:rgb(102, 102, 102);stroke-width:0px;"></rect><g><text text-anchor="start" align="top" anchor="start" font-size="16px" font-weight="normal" fill="rgb(102, 102, 102)" style="font-size:16px;font-family:微软雅黑;color:rgb(102, 102, 102);font-style:normal;text-align:left;font-weight:normal;background-color:rgb(223, 223, 223);text-decoration:none;border-color:rgb(102, 102, 102);"><tspan x="274" y="979"><tspan>Engineering processing skills</tspan></tspan></text></g></g><g id="7cca58d3f469"><rect x="533.515625" y="922" rx="5px" ry="5px" width="87" height="26" style="fill: #FFCDD2; stroke:rgb(68,68,68);stroke-width:1px;"></rect><g><text text-anchor="start" align="top" anchor="start" font-size="13px" font-weight="normal" fill="rgb(68, 68, 68)" style="font-size:13px;font-family:微软雅黑;color:rgb(68,68,68);font-style:normal;text-align:left;font-weight:normal;background-color:#FFCDD2;"><tspan x="544" y="941"><tspan>3D printing</tspan></tspan></text></g></g><g id="9699a646e923"><rect x="648.6875" y="923.640625" rx="5px" ry="5px" width="457" height="24" style="fill: transparent; stroke:none;stroke-width:0px;"></rect><g><text text-anchor="start" align="top" anchor="start" font-size="13px" font-weight="normal" fill="rgb(68, 68, 68)" style="font-size:13px;font-family:微软雅黑;color:rgb(68,68,68);font-style:normal;text-align:left;font-weight:normal;"><tspan x="658" y="941"><tspan>Targeted optimization design for different printing process requirements</tspan></tspan></text></g></g><g id="592b9810977e"><rect x="533.515625" y="958" rx="5px" ry="5px" width="48" height="26" style="fill: #FFF9C4; stroke:rgb(68,68,68);stroke-width:1px;"></rect><g><text text-anchor="start" align="top" anchor="start" font-size="13px" font-weight="normal" fill="rgb(68, 68, 68)" style="font-size:13px;font-family:微软雅黑;color:rgb(68,68,68);font-style:normal;text-align:left;font-weight:normal;background-color:#FFF9C4;"><tspan x="544" y="977"><tspan>CNC</tspan></tspan></text></g></g><g id="43828d129e54"><rect x="609.796875" y="959.640625" rx="5px" ry="5px" width="365" height="24" style="fill: transparent; stroke:none;stroke-width:0px;"></rect><g><text text-anchor="start" align="top" anchor="start" font-size="13px" font-weight="normal" fill="rgb(68, 68, 68)" style="font-size:13px;font-family:微软雅黑;color:rgb(68,68,68);font-style:normal;text-align:left;font-weight:normal;"><tspan x="619" y="977"><tspan>Knife path optimization design, design feasibility analysis</tspan></tspan></text></g></g><g id="c059f383a8ec"><rect x="533.515625" y="994" rx="5px" ry="5px" width="164" height="26" style="fill: #FFF9C4; stroke:rgb(68,68,68);stroke-width:1px;"></rect><g><text text-anchor="start" align="top" anchor="start" font-size="13px" font-weight="normal" fill="rgb(68, 68, 68)" style="font-size:13px;font-family:微软雅黑;color:rgb(68,68,68);font-style:normal;text-align:left;font-weight:normal;background-color:#FFF9C4;"><tspan x="544" y="1013"><tspan>Conventional machining</tspan></tspan></text></g></g><g id="fd46ff46ad9b"><rect x="725.6875" y="995.640625" rx="5px" ry="5px" width="173" height="24" style="fill: transparent; stroke:none;stroke-width:0px;"></rect><g><text text-anchor="start" align="top" anchor="start" font-size="13px" font-weight="normal" fill="rgb(68, 68, 68)" style="font-size:13px;font-family:微软雅黑;color:rgb(68,68,68);font-style:normal;text-align:left;font-weight:normal;"><tspan x="735" y="1013"><tspan>Design feasibility analysis</tspan></tspan></text></g></g><g id="ad11c30aba77"><rect x="258" y="790.640625" rx="6px" ry="6px" width="85" height="40" style="fill: rgb(223, 223, 223); stroke:rgb(102, 102, 102);stroke-width:0px;"></rect><g><text text-anchor="start" align="top" anchor="start" font-size="16px" font-weight="normal" fill="rgb(102, 102, 102)" style="font-size:16px;font-family:微软雅黑;color:rgb(102, 102, 102);font-style:normal;text-align:left;font-weight:normal;background-color:rgb(223, 223, 223);text-decoration:none;border-color:rgb(102, 102, 102);"><tspan x="274" y="817"><tspan>Coding</tspan></tspan></text></g></g><g id="def41a909674"><rect x="370.90625" y="724" rx="5px" ry="5px" width="62" height="26" style="fill: #FFCDD2; stroke:rgb(68,68,68);stroke-width:1px;"></rect><g><text text-anchor="start" align="top" anchor="start" font-size="13px" font-weight="normal" fill="rgb(68, 68, 68)" style="font-size:13px;font-family:微软雅黑;color:rgb(68,68,68);font-style:normal;text-align:left;font-weight:normal;background-color:#FFCDD2;"><tspan x="381" y="743"><tspan>Python</tspan></tspan></text></g></g><g id="ff02cfe0a239"><rect x="460.4375" y="725.640625" rx="5px" ry="5px" width="278" height="24" style="fill: transparent; stroke:none;stroke-width:0px;"></rect><g><text text-anchor="start" align="top" anchor="start" font-size="13px" font-weight="normal" fill="rgb(68, 68, 68)" style="font-size:13px;font-family:微软雅黑;color:rgb(68,68,68);font-style:normal;text-align:left;font-weight:normal;"><tspan x="469" y="743"><tspan>ROS, script design, simulation visualization</tspan></tspan></text></g></g><g id="a388c9531d1e"><rect x="370.90625" y="760" rx="5px" ry="5px" width="45" height="26" style="fill: #FFF9C4; stroke:rgb(68,68,68);stroke-width:1px;"></rect><g><text text-anchor="start" align="top" anchor="start" font-size="13px" font-weight="normal" fill="rgb(68, 68, 68)" style="font-size:13px;font-family:微软雅黑;color:rgb(68,68,68);font-style:normal;text-align:left;font-weight:normal;background-color:#FFF9C4;"><tspan x="381" y="779"><tspan>C++</tspan></tspan></text></g></g><g id="6335858b3fef"><rect x="444.109375" y="761.640625" rx="5px" ry="5px" width="376" height="24" style="fill: transparent; stroke:none;stroke-width:0px;"></rect><g><text text-anchor="start" align="top" anchor="start" font-size="13px" font-weight="normal" fill="rgb(68, 68, 68)" style="font-size:13px;font-family:微软雅黑;color:rgb(68,68,68);font-style:normal;text-align:left;font-weight:normal;"><tspan x="453" y="779"><tspan>MCU program development, Unreal Engine program design</tspan></tspan></text></g></g><g id="35fc9367b684"><rect x="370.90625" y="796" rx="5px" ry="5px" width="40" height="26" style="fill: #B2EBF2; stroke:rgb(68,68,68);stroke-width:1px;"></rect><g><text text-anchor="start" align="top" anchor="start" font-size="13px" font-weight="normal" fill="rgb(68, 68, 68)" style="font-size:13px;font-family:微软雅黑;color:rgb(68,68,68);font-style:normal;text-align:left;font-weight:normal;background-color:#B2EBF2;"><tspan x="381" y="815"><tspan>C#</tspan></tspan></text></g></g><g id="c67d296e9c06"><rect x="438.90625" y="797.640625" rx="5px" ry="5px" width="155" height="24" style="fill: transparent; stroke:none;stroke-width:0px;"></rect><g><text text-anchor="start" align="top" anchor="start" font-size="13px" font-weight="normal" fill="rgb(68, 68, 68)" style="font-size:13px;font-family:微软雅黑;color:rgb(68,68,68);font-style:normal;text-align:left;font-weight:normal;"><tspan x="448" y="815"><tspan>Unity 3D programming</tspan></tspan></text></g></g><g id="43fcf4b731f395d7"><rect x="370.90625" y="832" rx="5px" ry="5px" width="40" height="26" style="fill: #FFF9C4; stroke:rgb(68,68,68);stroke-width:1px;"></rect><g><text text-anchor="start" align="top" anchor="start" font-size="13px" font-weight="normal" fill="rgb(68, 68, 68)" style="font-size:13px;font-family:微软雅黑;color:rgb(68,68,68);font-style:normal;text-align:left;font-weight:normal;background-color:#FFF9C4;"><tspan x="381" y="851"><tspan>C</tspan></tspan></text></g></g><g id="d7c316e208133e54"><rect x="438.90625" y="833.640625" rx="5px" ry="5px" width="331" height="24" style="fill: transparent; stroke:none;stroke-width:0px;"></rect><g><text text-anchor="start" align="top" anchor="start" font-size="13px" font-weight="normal" fill="rgb(68, 68, 68)" style="font-size:13px;font-family:微软雅黑;color:rgb(68,68,68);font-style:normal;text-align:left;font-weight:normal;"><tspan x="448" y="851"><tspan>Program development based on keil microcontroller</tspan></tspan></text></g></g><g id="3a3e49a50123cbdc"><rect x="370.90625" y="868" rx="5px" ry="5px" width="83" height="26" style="fill: #FFCDD2; stroke:rgb(68,68,68);stroke-width:1px;"></rect><g><text text-anchor="start" align="top" anchor="start" font-size="13px" font-weight="normal" fill="rgb(68, 68, 68)" style="font-size:13px;font-family:微软雅黑;color:rgb(68,68,68);font-style:normal;text-align:left;font-weight:normal;background-color:#FFCDD2;"><tspan x="381" y="887"><tspan>Markdown</tspan></tspan></text></g></g><g id="4d08a34b6256656b"><rect x="481.59375" y="869.640625" rx="5px" ry="5px" width="181" height="24" style="fill: transparent; stroke:none;stroke-width:0px;"></rect><g><text text-anchor="start" align="top" anchor="start" font-size="13px" font-weight="normal" fill="rgb(68, 68, 68)" style="font-size:13px;font-family:微软雅黑;color:rgb(68,68,68);font-style:normal;text-align:left;font-weight:normal;"><tspan x="491" y="887"><tspan>Rich text document writing</tspan></tspan></text></g></g><g id="888f517c137c"><rect x="258" y="646.640625" rx="6px" ry="6px" width="158" height="40" style="fill: rgb(223, 223, 223); stroke:rgb(102, 102, 102);stroke-width:0px;"></rect><g><text text-anchor="start" align="top" anchor="start" font-size="16px" font-weight="normal" fill="rgb(102, 102, 102)" style="font-size:16px;font-family:微软雅黑;color:rgb(102, 102, 102);font-style:normal;text-align:left;font-weight:normal;background-color:rgb(223, 223, 223);text-decoration:none;border-color:rgb(102, 102, 102);"><tspan x="274" y="673"><tspan>Hardware design</tspan></tspan></text></g></g><g id="f53befef6567"><rect x="443.59375" y="634" rx="5px" ry="5px" width="52" height="26" style="fill: #FFCDD2; stroke:rgb(68,68,68);stroke-width:1px;"></rect><g><text text-anchor="start" align="top" anchor="start" font-size="13px" font-weight="normal" fill="rgb(68, 68, 68)" style="font-size:13px;font-family:微软雅黑;color:rgb(68,68,68);font-style:normal;text-align:left;font-weight:normal;background-color:#FFCDD2;"><tspan x="454" y="653"><tspan>lceda</tspan></tspan></text></g></g><g id="c114fc9f59b7"><rect x="523.875" y="635.640625" rx="5px" ry="5px" width="279" height="24" style="fill: transparent; stroke:none;stroke-width:0px;"></rect><g><text text-anchor="start" align="top" anchor="start" font-size="13px" font-weight="normal" fill="rgb(68, 68, 68)" style="font-size:13px;font-family:微软雅黑;color:rgb(68,68,68);font-style:normal;text-align:left;font-weight:normal;"><tspan x="533" y="653"><tspan>Simple circuit board design and production</tspan></tspan></text></g></g><g id="59a68d2dedd0"><rect x="443.59375" y="670" rx="5px" ry="5px" width="114" height="26" style="fill: #FFF9C4; stroke:rgb(68,68,68);stroke-width:1px;"></rect><g><text text-anchor="start" align="top" anchor="start" font-size="13px" font-weight="normal" fill="rgb(68, 68, 68)" style="font-size:13px;font-family:微软雅黑;color:rgb(68,68,68);font-style:normal;text-align:left;font-weight:normal;background-color:#FFF9C4;"><tspan x="454" y="689"><tspan>Altium designer</tspan></tspan></text></g></g><g id="77ba4958317f"><rect x="585.5" y="671.640625" rx="5px" ry="5px" width="291" height="24" style="fill: transparent; stroke:none;stroke-width:0px;"></rect><g><text text-anchor="start" align="top" anchor="start" font-size="13px" font-weight="normal" fill="rgb(68, 68, 68)" style="font-size:13px;font-family:微软雅黑;color:rgb(68,68,68);font-style:normal;text-align:left;font-weight:normal;"><tspan x="595" y="689"><tspan>Complex circuit board design and production</tspan></tspan></text></g></g><g id="7cc10fc86fcc"><rect x="258" y="394.640625" rx="6px" ry="6px" width="225" height="40" style="fill: rgb(223, 223, 223); stroke:rgb(102, 102, 102);stroke-width:0px;"></rect><g><text text-anchor="start" align="top" anchor="start" font-size="16px" font-weight="normal" fill="rgb(102, 102, 102)" style="font-size:16px;font-family:微软雅黑;color:rgb(102, 102, 102);font-style:normal;text-align:left;font-weight:normal;background-color:rgb(223, 223, 223);text-decoration:none;border-color:rgb(102, 102, 102);"><tspan x="274" y="421"><tspan>3D Design and Simulation</tspan></tspan></text></g></g><g id="2cbb4037259b"><rect x="510.546875" y="293.640625" rx="5px" ry="5px" width="59" height="24" style="fill: transparent; stroke:none;stroke-width:0px;"></rect><g><text text-anchor="start" align="top" anchor="start" font-size="13px" font-weight="normal" fill="rgb(68, 68, 68)" style="font-size:13px;font-family:微软雅黑;color:rgb(68,68,68);font-style:normal;text-align:left;font-weight:normal;"><tspan x="520" y="311"><tspan>Design</tspan></tspan></text></g></g><g id="f897c0862c09"><rect x="597.796875" y="220" rx="5px" ry="5px" width="85" height="26" style="fill: #FFCDD2; stroke:rgb(68,68,68);stroke-width:1px;"></rect><g><text text-anchor="start" align="top" anchor="start" font-size="13px" font-weight="normal" fill="rgb(68, 68, 68)" style="font-size:13px;font-family:微软雅黑;color:rgb(68,68,68);font-style:normal;text-align:left;font-weight:normal;background-color:#FFCDD2;"><tspan x="608" y="239"><tspan>Solidworks</tspan></tspan></text></g></g><g id="6b6c9f14ded7"><rect x="711.265625" y="221.640625" rx="5px" ry="5px" width="316" height="24" style="fill: transparent; stroke:none;stroke-width:0px;"></rect><g><text text-anchor="start" align="top" anchor="start" font-size="13px" font-weight="normal" fill="rgb(68, 68, 68)" style="font-size:13px;font-family:微软雅黑;color:rgb(68,68,68);font-style:normal;text-align:left;font-weight:normal;"><tspan x="720" y="239"><tspan>mechanical structure design and rapid simulation</tspan></tspan></text></g></g><g id="35a76a8de912"><rect x="597.796875" y="256" rx="5px" ry="5px" width="54" height="26" style="fill: #FFCDD2; stroke:rgb(68,68,68);stroke-width:1px;"></rect><g><text text-anchor="start" align="top" anchor="start" font-size="13px" font-weight="normal" fill="rgb(68, 68, 68)" style="font-size:13px;font-family:微软雅黑;color:rgb(68,68,68);font-style:normal;text-align:left;font-weight:normal;background-color:#FFCDD2;"><tspan x="608" y="275"><tspan>Rhino</tspan></tspan></text></g></g><g id="7e735485865f"><rect x="680.03125" y="257.640625" rx="5px" ry="5px" width="164" height="24" style="fill: transparent; stroke:none;stroke-width:0px;"></rect><g><text text-anchor="start" align="top" anchor="start" font-size="13px" font-weight="normal" fill="rgb(68, 68, 68)" style="font-size:13px;font-family:微软雅黑;color:rgb(68,68,68);font-style:normal;text-align:left;font-weight:normal;"><tspan x="689" y="275"><tspan>Complex surface design</tspan></tspan></text></g></g><g id="0c15c27b0087"><rect x="597.796875" y="292" rx="5px" ry="5px" width="49" height="26" style="fill: #FFF9C4; stroke:rgb(68,68,68);stroke-width:1px;"></rect><g><text text-anchor="start" align="top" anchor="start" font-size="13px" font-weight="normal" fill="rgb(68, 68, 68)" style="font-size:13px;font-family:微软雅黑;color:rgb(68,68,68);font-style:normal;text-align:left;font-weight:normal;background-color:#FFF9C4;"><tspan x="608" y="311"><tspan>Creo</tspan></tspan></text></g></g><g id="af96b5e8beaf"><rect x="674.84375" y="293.640625" rx="5px" ry="5px" width="210" height="24" style="fill: transparent; stroke:none;stroke-width:0px;"></rect><g><text text-anchor="start" align="top" anchor="start" font-size="13px" font-weight="normal" fill="rgb(68, 68, 68)" style="font-size:13px;font-family:微软雅黑;color:rgb(68,68,68);font-style:normal;text-align:left;font-weight:normal;"><tspan x="684" y="311"><tspan>3D mechanical structure design</tspan></tspan></text></g></g><g id="552f6cec185c"><rect x="597.796875" y="328" rx="5px" ry="5px" width="87" height="26" style="fill: #FFCDD2; stroke:rgb(68,68,68);stroke-width:1px;"></rect><g><text text-anchor="start" align="top" anchor="start" font-size="13px" font-weight="normal" fill="rgb(68, 68, 68)" style="font-size:13px;font-family:微软雅黑;color:rgb(68,68,68);font-style:normal;text-align:left;font-weight:normal;background-color:#FFCDD2;"><tspan x="608" y="347"><tspan>Fusion 360</tspan></tspan></text></g></g><g id="5c660cb1c34f"><rect x="713.09375" y="329.640625" rx="5px" ry="5px" width="447" height="24" style="fill: transparent; stroke:none;stroke-width:0px;"></rect><g><text text-anchor="start" align="top" anchor="start" font-size="13px" font-weight="normal" fill="rgb(68, 68, 68)" style="font-size:13px;font-family:微软雅黑;color:rgb(68,68,68);font-style:normal;text-align:left;font-weight:normal;"><tspan x="722" y="347"><tspan>3D mechanical structure design, rapid simulation and derivative design</tspan></tspan></text></g></g><g id="0c7de47fcd17"><rect x="597.796875" y="364" rx="5px" ry="5px" width="108" height="26" style="fill: #FFCDD2; stroke:rgb(68,68,68);stroke-width:1px;"></rect><g><text text-anchor="start" align="top" anchor="start" font-size="13px" font-weight="normal" fill="rgb(68, 68, 68)" style="font-size:13px;font-family:微软雅黑;color:rgb(68,68,68);font-style:normal;text-align:left;font-weight:normal;background-color:#FFCDD2;"><tspan x="608" y="383"><tspan>Autodesk CAD</tspan></tspan></text></g></g><g id="9c0493f690f1"><rect x="733.640625" y="365.640625" rx="5px" ry="5px" width="162" height="24" style="fill: transparent; stroke:none;stroke-width:0px;"></rect><g><text text-anchor="start" align="top" anchor="start" font-size="13px" font-weight="normal" fill="rgb(68, 68, 68)" style="font-size:13px;font-family:微软雅黑;color:rgb(68,68,68);font-style:normal;text-align:left;font-weight:normal;"><tspan x="743" y="383"><tspan>2D engineering drawing</tspan></tspan></text></g></g><g id="922835a35b67"><rect x="510.546875" y="491.640625" rx="5px" ry="5px" width="79" height="24" style="fill: transparent; stroke:none;stroke-width:0px;"></rect><g><text text-anchor="start" align="top" anchor="start" font-size="13px" font-weight="normal" fill="rgb(68, 68, 68)" style="font-size:13px;font-family:微软雅黑;color:rgb(68,68,68);font-style:normal;text-align:left;font-weight:normal;"><tspan x="520" y="509"><tspan>simulation</tspan></tspan></text></g></g><g id="25559c23dbb9"><rect x="618" y="400" rx="5px" ry="5px" width="127" height="26" style="fill: #FFCDD2; stroke:rgb(68,68,68);stroke-width:1px;"></rect><g><text text-anchor="start" align="top" anchor="start" font-size="13px" font-weight="normal" fill="rgb(68, 68, 68)" style="font-size:13px;font-family:微软雅黑;color:rgb(68,68,68);font-style:normal;text-align:left;font-weight:normal;background-color:#FFCDD2;"><tspan x="628" y="419"><tspan>Ansys Workbench</tspan></tspan></text></g></g><g id="de9f9ba3c357"><rect x="773.484375" y="401.640625" rx="5px" ry="5px" width="374" height="24" style="fill: transparent; stroke:none;stroke-width:0px;"></rect><g><text text-anchor="start" align="top" anchor="start" font-size="13px" font-weight="normal" fill="rgb(68, 68, 68)" style="font-size:13px;font-family:微软雅黑;color:rgb(68,68,68);font-style:normal;text-align:left;font-weight:normal;"><tspan x="782" y="419"><tspan>Static stress simulation, transient dynamics simulation, etc</tspan></tspan></text></g></g><g id="1ae5eee8f0d8"><rect x="618" y="436" rx="5px" ry="5px" width="97" height="26" style="fill: #B2EBF2; stroke:rgb(68,68,68);stroke-width:1px;"></rect><g><text text-anchor="start" align="top" anchor="start" font-size="13px" font-weight="normal" fill="rgb(68, 68, 68)" style="font-size:13px;font-family:微软雅黑;color:rgb(68,68,68);font-style:normal;text-align:left;font-weight:normal;background-color:#B2EBF2;"><tspan x="628" y="455"><tspan>Ansys Fluent</tspan></tspan></text></g></g><g id="6c9023bb3560"><rect x="742.65625" y="437.640625" rx="5px" ry="5px" width="181" height="24" style="fill: transparent; stroke:none;stroke-width:0px;"></rect><g><text text-anchor="start" align="top" anchor="start" font-size="13px" font-weight="normal" fill="rgb(68, 68, 68)" style="font-size:13px;font-family:微软雅黑;color:rgb(68,68,68);font-style:normal;text-align:left;font-weight:normal;"><tspan x="752" y="455"><tspan>Fluid mechanics simulation</tspan></tspan></text></g></g><g id="3ac9ac7f8bcf"><rect x="618" y="472" rx="5px" ry="5px" width="65" height="26" style="fill: #FFCDD2; stroke:rgb(68,68,68);stroke-width:1px;"></rect><g><text text-anchor="start" align="top" anchor="start" font-size="13px" font-weight="normal" fill="rgb(68, 68, 68)" style="font-size:13px;font-family:微软雅黑;color:rgb(68,68,68);font-style:normal;text-align:left;font-weight:normal;background-color:#FFCDD2;"><tspan x="628" y="491"><tspan>Comsol</tspan></tspan></text></g></g><g id="26241d5d0fd6"><rect x="711.4375" y="473.640625" rx="5px" ry="5px" width="364" height="24" style="fill: transparent; stroke:none;stroke-width:0px;"></rect><g><text text-anchor="start" align="top" anchor="start" font-size="13px" font-weight="normal" fill="rgb(68, 68, 68)" style="font-size:13px;font-family:微软雅黑;color:rgb(68,68,68);font-style:normal;text-align:left;font-weight:normal;"><tspan x="720" y="491"><tspan>Simulation of force field, thermal field, and their coupling</tspan></tspan></text></g></g><g id="6ce8ea9d153c"><rect x="618" y="508" rx="5px" ry="5px" width="61" height="26" style="fill: #FFF9C4; stroke:rgb(68,68,68);stroke-width:1px;"></rect><g><text text-anchor="start" align="top" anchor="start" font-size="13px" font-weight="normal" fill="rgb(68, 68, 68)" style="font-size:13px;font-family:微软雅黑;color:rgb(68,68,68);font-style:normal;text-align:left;font-weight:normal;background-color:#FFF9C4;"><tspan x="628" y="527"><tspan>Adams</tspan></tspan></text></g></g><g id="6e4c2483088a"><rect x="707.109375" y="509.640625" rx="5px" ry="5px" width="277" height="24" style="fill: transparent; stroke:none;stroke-width:0px;"></rect><g><text text-anchor="start" align="top" anchor="start" font-size="13px" font-weight="normal" fill="rgb(68, 68, 68)" style="font-size:13px;font-family:微软雅黑;color:rgb(68,68,68);font-style:normal;text-align:left;font-weight:normal;"><tspan x="716" y="527"><tspan>Robot kinematics and dynamics simulation</tspan></tspan></text></g></g><g id="bcf8a22e4989"><rect x="618" y="544" rx="5px" ry="5px" width="96" height="26" style="fill: #FFCDD2; stroke:rgb(68,68,68);stroke-width:1px;"></rect><g><text text-anchor="start" align="top" anchor="start" font-size="13px" font-weight="normal" fill="rgb(68, 68, 68)" style="font-size:13px;font-family:微软雅黑;color:rgb(68,68,68);font-style:normal;text-align:left;font-weight:normal;background-color:#FFCDD2;"><tspan x="628" y="563"><tspan>Altair Inspire</tspan></tspan></text></g></g><g id="f99e3cf46e1a"><rect x="741.703125" y="545.640625" rx="5px" ry="5px" width="127" height="24" style="fill: transparent; stroke:none;stroke-width:0px;"></rect><g><text text-anchor="start" align="top" anchor="start" font-size="13px" font-weight="normal" fill="rgb(68, 68, 68)" style="font-size:13px;font-family:微软雅黑;color:rgb(68,68,68);font-style:normal;text-align:left;font-weight:normal;"><tspan x="751" y="563"><tspan>Generative design</tspan></tspan></text></g></g><g id="834908f62114"><rect x="618" y="580" rx="5px" ry="5px" width="74" height="26" style="fill: #FFF9C4; stroke:rgb(68,68,68);stroke-width:1px;"></rect><g><text text-anchor="start" align="top" anchor="start" font-size="13px" font-weight="normal" fill="rgb(68, 68, 68)" style="font-size:13px;font-family:微软雅黑;color:rgb(68,68,68);font-style:normal;text-align:left;font-weight:normal;background-color:#FFF9C4;"><tspan x="628" y="599"><tspan>LabVIEW</tspan></tspan></text></g></g><g id="89ca58a82c8c"><rect x="720.296875" y="581.640625" rx="5px" ry="5px" width="197" height="24" style="fill: transparent; stroke:none;stroke-width:0px;"></rect><g><text text-anchor="start" align="top" anchor="start" font-size="13px" font-weight="normal" fill="rgb(68, 68, 68)" style="font-size:13px;font-family:微软雅黑;color:rgb(68,68,68);font-style:normal;text-align:left;font-weight:normal;"><tspan x="729" y="599"><tspan>Upper computer panel design</tspan></tspan></text></g></g><g id="6095425cb130"><rect x="258" y="92.640625" rx="6px" ry="6px" width="341" height="40" style="fill: rgb(223, 223, 223); stroke:rgb(102, 102, 102);stroke-width:0px;"></rect><g><text text-anchor="start" align="top" anchor="start" font-size="16px" font-weight="normal" fill="rgb(102, 102, 102)" style="font-size:16px;font-family:微软雅黑;color:rgb(102, 102, 102);font-style:normal;text-align:left;font-weight:normal;background-color:rgb(223, 223, 223);text-decoration:none;border-color:rgb(102, 102, 102);"><tspan x="274" y="119"><tspan>Engineering data processing and analysis</tspan></tspan></text></g></g><g id="058c68db9825"><rect x="626.921875" y="80.640625" rx="5px" ry="5px" width="61" height="26" style="fill: #FFCDD2; stroke:rgb(68,68,68);stroke-width:1px;"></rect><g><text text-anchor="start" align="top" anchor="start" font-size="13px" font-weight="normal" fill="rgb(68, 68, 68)" style="font-size:13px;font-family:微软雅黑;color:rgb(68,68,68);font-style:normal;text-align:left;font-weight:normal;background-color:#FFCDD2;"><tspan x="637" y="99"><tspan>Matlab</tspan></tspan></text></g></g><g id="c2d9f18f3425"><rect x="716.21875" y="30" rx="5px" ry="5px" width="186" height="24" style="fill: transparent; stroke:none;stroke-width:0px;"></rect><g><text text-anchor="start" align="top" anchor="start" font-size="13px" font-weight="normal" fill="rgb(68, 68, 68)" style="font-size:13px;font-family:微软雅黑;color:rgb(68,68,68);font-style:normal;text-align:left;font-weight:normal;"><tspan x="725" y="48"><tspan>Data analysis chart drawing</tspan></tspan></text></g></g><g id="00dbba360e3d"><rect x="716.21875" y="64" rx="5px" ry="5px" width="120" height="24" style="fill: transparent; stroke:none;stroke-width:0px;"></rect><g><text text-anchor="start" align="top" anchor="start" font-size="13px" font-weight="normal" fill="rgb(68, 68, 68)" style="font-size:13px;font-family:微软雅黑;color:rgb(68,68,68);font-style:normal;text-align:left;font-weight:normal;"><tspan x="725" y="82"><tspan>Robotics toolbox</tspan></tspan></text></g></g><g id="fdb3bbc85008"><rect x="716.21875" y="98" rx="5px" ry="5px" width="152" height="24" style="fill: transparent; stroke:none;stroke-width:0px;"></rect><g><text text-anchor="start" align="top" anchor="start" font-size="13px" font-weight="normal" fill="rgb(68, 68, 68)" style="font-size:13px;font-family:微软雅黑;color:rgb(68,68,68);font-style:normal;text-align:left;font-weight:normal;"><tspan x="725" y="116"><tspan>Mechanism simulation</tspan></tspan></text></g></g><g id="73f3c89bf9eb"><rect x="716.21875" y="132" rx="5px" ry="5px" width="125" height="24" style="fill: transparent; stroke:none;stroke-width:0px;"></rect><g><text text-anchor="start" align="top" anchor="start" font-size="13px" font-weight="normal" fill="rgb(68, 68, 68)" style="font-size:13px;font-family:微软雅黑;color:rgb(68,68,68);font-style:normal;text-align:left;font-weight:normal;"><tspan x="725" y="150"><tspan>Signal processing</tspan></tspan></text></g></g><g id="2bbcd2a170b89114"><rect x="626.921875" y="166" rx="5px" ry="5px" width="56" height="26" style="fill: #FFF9C4; stroke:rgb(68,68,68);stroke-width:1px;"></rect><g><text text-anchor="start" align="top" anchor="start" font-size="13px" font-weight="normal" fill="rgb(68, 68, 68)" style="font-size:13px;font-family:微软雅黑;color:rgb(68,68,68);font-style:normal;text-align:left;font-weight:normal;background-color:#FFF9C4;"><tspan x="637" y="185"><tspan>Origin</tspan></tspan></text></g></g><g id="91eb72b2fa896a60"><rect x="711.25" y="167.640625" rx="5px" ry="5px" width="101" height="24" style="fill: transparent; stroke:none;stroke-width:0px;"></rect><g><text text-anchor="start" align="top" anchor="start" font-size="13px" font-weight="normal" fill="rgb(68, 68, 68)" style="font-size:13px;font-family:微软雅黑;color:rgb(68,68,68);font-style:normal;text-align:left;font-weight:normal;"><tspan x="720" y="185"><tspan>Scientific plot</tspan></tspan></text></g></g><g transform="translate(258, 1048)" id="sdjakdjak0"><g id="subline_8050305c4d86e317" transform="translate(0.5, 0.5)"><path id="line_05cec1d7c26dd2cb" d="M 118.21875 50 L 137 50 L 137 30.625 A 4 4 0 0 1 141 26.625 L 360.21875 26.625" p="8050305c4d86e317" stroke="#cccdcd" fill="none" stroke-linecap="square" stroke-width="1"></path><path id="line_7e92bfdd0bb716be" d="M 118.21875 50 L 137 50 L 137 62.625 L 377.21875 62.625" p="8050305c4d86e317" stroke="#cccdcd" fill="none" stroke-linecap="square" stroke-width="1"></path><path id="line_a6c4b30ad038986c" d="M 118.21875 50 L 137 50 L 137 94.625 A 4 4 0 0 0 141 98.625 L 204.21875 98.625" p="8050305c4d86e317" stroke="#cccdcd" fill="none" stroke-linecap="square" stroke-width="1"></path></g><g transform="translate(0.5,0.5)"></g><g class="svg-summary-con" transform="translate(0.5,0.5)"></g><g class="svg-boundary-con" transform="translate(0.5,0.5)"></g></g><g transform="translate(258, 922)" id="sdjakdjak1"><g id="subline_fd4fa8c2d8e5" transform="translate(0.5, 0.5)"><path id="line_7cca58d3f469" d="M 247.515625 50 L 266 50 L 266 31 A 4 4 0 0 1 270 27 L 362.515625 27" p="fd4fa8c2d8e5" stroke="#cccdcd" fill="none" stroke-linecap="square" stroke-width="1"></path><path id="line_9699a646e923" d="M 362.6875 27 L 381 27 L 381 26.265625 L 847.6875 26.265625" p="7cca58d3f469" stroke="#cccdcd" fill="none" stroke-linecap="square" stroke-width="1"></path><path id="line_592b9810977e" d="M 247.515625 50 L 266 50 L 266 63 L 323.515625 63" p="fd4fa8c2d8e5" stroke="#cccdcd" fill="none" stroke-linecap="square" stroke-width="1"></path><path id="line_43828d129e54" d="M 323.796875 63 L 342 63 L 342 62.265625 L 716.796875 62.265625" p="592b9810977e" stroke="#cccdcd" fill="none" stroke-linecap="square" stroke-width="1"></path><path id="line_c059f383a8ec" d="M 247.515625 50 L 266 50 L 266 95 A 4 4 0 0 0 270 99 L 439.515625 99" p="fd4fa8c2d8e5" stroke="#cccdcd" fill="none" stroke-linecap="square" stroke-width="1"></path><path id="line_fd46ff46ad9b" d="M 439.6875 99 L 458 99 L 458 98.265625 L 640.6875 98.265625" p="c059f383a8ec" stroke="#cccdcd" fill="none" stroke-linecap="square" stroke-width="1"></path></g><g transform="translate(0.5,0.5)"></g><g class="svg-summary-con" transform="translate(0.5,0.5)"></g><g class="svg-boundary-con" transform="translate(0.5,0.5)"></g></g><g transform="translate(258, 724)" id="sdjakdjak2"><g id="subline_ad11c30aba77" transform="translate(0.5, 0.5)"><path id="line_def41a909674" d="M 84.90625 86 L 103 86 L 103 31 A 4 4 0 0 1 107 27 L 174.90625 27" p="ad11c30aba77" stroke="#cccdcd" fill="none" stroke-linecap="square" stroke-width="1"></path><path id="line_ff02cfe0a239" d="M 174.4375 27 L 193 27 L 193 26.265625 L 480.4375 26.265625" p="def41a909674" stroke="#cccdcd" fill="none" stroke-linecap="square" stroke-width="1"></path><path id="line_a388c9531d1e" d="M 84.90625 86 L 103 86 L 103 67 A 4 4 0 0 1 107 63 L 157.90625 63" p="ad11c30aba77" stroke="#cccdcd" fill="none" stroke-linecap="square" stroke-width="1"></path><path id="line_6335858b3fef" d="M 158.109375 63 L 177 63 L 177 62.265625 L 562.109375 62.265625" p="a388c9531d1e" stroke="#cccdcd" fill="none" stroke-linecap="square" stroke-width="1"></path><path id="line_35fc9367b684" d="M 84.90625 86 L 103 86 L 103 99 L 152.90625 99" p="ad11c30aba77" stroke="#cccdcd" fill="none" stroke-linecap="square" stroke-width="1"></path><path id="line_c67d296e9c06" d="M 152.90625 99 L 171 99 L 171 98.265625 L 335.90625 98.265625" p="35fc9367b684" stroke="#cccdcd" fill="none" stroke-linecap="square" stroke-width="1"></path><path id="line_43fcf4b731f395d7" d="M 84.90625 86 L 103 86 L 103 131 A 4 4 0 0 0 107 135 L 152.90625 135" p="ad11c30aba77" stroke="#cccdcd" fill="none" stroke-linecap="square" stroke-width="1"></path><path id="line_d7c316e208133e54" d="M 152.90625 135 L 171 135 L 171 134.265625 L 511.90625 134.265625" p="43fcf4b731f395d7" stroke="#cccdcd" fill="none" stroke-linecap="square" stroke-width="1"></path><path id="line_3a3e49a50123cbdc" d="M 84.90625 86 L 103 86 L 103 167 A 4 4 0 0 0 107 171 L 195.90625 171" p="ad11c30aba77" stroke="#cccdcd" fill="none" stroke-linecap="square" stroke-width="1"></path><path id="line_4d08a34b6256656b" d="M 195.59375 171 L 214 171 L 214 170.265625 L 404.59375 170.265625" p="3a3e49a50123cbdc" stroke="#cccdcd" fill="none" stroke-linecap="square" stroke-width="1"></path></g><g transform="translate(0.5,0.5)"></g><g class="svg-summary-con" transform="translate(0.5,0.5)"></g><g class="svg-boundary-con" transform="translate(0.5,0.5)"></g></g><g transform="translate(258, 634)" id="sdjakdjak3"><g id="subline_888f517c137c" transform="translate(0.5, 0.5)"><path id="line_f53befef6567" d="M 157.59375 32 L 176 32 L 176 31 A 4 4 0 0 1 180 27 L 237.59375 27" p="888f517c137c" stroke="#cccdcd" fill="none" stroke-linecap="square" stroke-width="1"></path><path id="line_c114fc9f59b7" d="M 237.875 27 L 256 27 L 256 26.265625 L 544.875 26.265625" p="f53befef6567" stroke="#cccdcd" fill="none" stroke-linecap="square" stroke-width="1"></path><path id="line_59a68d2dedd0" d="M 157.59375 32 L 176 32 L 176 63 L 299.59375 63" p="888f517c137c" stroke="#cccdcd" fill="none" stroke-linecap="square" stroke-width="1"></path><path id="line_77ba4958317f" d="M 299.5 63 L 318 63 L 318 62.265625 L 618.5 62.265625" p="59a68d2dedd0" stroke="#cccdcd" fill="none" stroke-linecap="square" stroke-width="1"></path></g><g transform="translate(0.5,0.5)"></g><g class="svg-summary-con" transform="translate(0.5,0.5)"></g><g class="svg-boundary-con" transform="translate(0.5,0.5)"></g></g><g transform="translate(258, 220)" id="sdjakdjak4"><g id="subline_7cc10fc86fcc" transform="translate(0.5, 0.5)"><path id="line_2cbb4037259b" d="M 224.546875 194 L 243 194 L 243 102.640625 A 4 4 0 0 1 247 98.640625 L 311.546875 98.640625" p="7cc10fc86fcc" stroke="#cccdcd" fill="none" stroke-linecap="square" stroke-width="1"></path><path id="line_f897c0862c09" d="M 311.796875 98.640625 L 330 98.640625 L 330 31 A 4 4 0 0 1 334 27 L 424.796875 27" p="2cbb4037259b" stroke="#cccdcd" fill="none" stroke-linecap="square" stroke-width="1"></path><path id="line_6b6c9f14ded7" d="M 425.265625 27 L 444 27 L 444 26.265625 L 769.265625 26.265625" p="f897c0862c09" stroke="#cccdcd" fill="none" stroke-linecap="square" stroke-width="1"></path><path id="line_35a76a8de912" d="M 311.796875 98.640625 L 330 98.640625 L 330 67 A 4 4 0 0 1 334 63 L 393.796875 63" p="2cbb4037259b" stroke="#cccdcd" fill="none" stroke-linecap="square" stroke-width="1"></path><path id="line_7e735485865f" d="M 394.03125 63 L 413 63 L 413 62.265625 L 586.03125 62.265625" p="35a76a8de912" stroke="#cccdcd" fill="none" stroke-linecap="square" stroke-width="1"></path><path id="line_0c15c27b0087" d="M 311.796875 98.640625 L 330 98.640625 L 330 99 L 388.796875 99" p="2cbb4037259b" stroke="#cccdcd" fill="none" stroke-linecap="square" stroke-width="1"></path><path id="line_af96b5e8beaf" d="M 388.84375 99 L 407 99 L 407 98.265625 L 626.84375 98.265625" p="0c15c27b0087" stroke="#cccdcd" fill="none" stroke-linecap="square" stroke-width="1"></path><path id="line_552f6cec185c" d="M 311.796875 98.640625 L 330 98.640625 L 330 131 A 4 4 0 0 0 334 135 L 426.796875 135" p="2cbb4037259b" stroke="#cccdcd" fill="none" stroke-linecap="square" stroke-width="1"></path><path id="line_5c660cb1c34f" d="M 427.09375 135 L 446 135 L 446 134.265625 L 902.09375 134.265625" p="552f6cec185c" stroke="#cccdcd" fill="none" stroke-linecap="square" stroke-width="1"></path><path id="line_0c7de47fcd17" d="M 311.796875 98.640625 L 330 98.640625 L 330 167 A 4 4 0 0 0 334 171 L 447.796875 171" p="2cbb4037259b" stroke="#cccdcd" fill="none" stroke-linecap="square" stroke-width="1"></path><path id="line_9c0493f690f1" d="M 447.640625 171 L 466 171 L 466 170.265625 L 637.640625 170.265625" p="0c7de47fcd17" stroke="#cccdcd" fill="none" stroke-linecap="square" stroke-width="1"></path><path id="line_922835a35b67" d="M 224.546875 194 L 243 194 L 243 292.640625 A 4 4 0 0 0 247 296.640625 L 331.546875 296.640625" p="7cc10fc86fcc" stroke="#cccdcd" fill="none" stroke-linecap="square" stroke-width="1"></path><path id="line_25559c23dbb9" d="M 332 296.640625 L 350 296.640625 L 350 211 A 4 4 0 0 1 354 207 L 487 207" p="922835a35b67" stroke="#cccdcd" fill="none" stroke-linecap="square" stroke-width="1"></path><path id="line_de9f9ba3c357" d="M 487.484375 207 L 506 207 L 506 206.265625 L 889.484375 206.265625" p="25559c23dbb9" stroke="#cccdcd" fill="none" stroke-linecap="square" stroke-width="1"></path><path id="line_1ae5eee8f0d8" d="M 332 296.640625 L 350 296.640625 L 350 247 A 4 4 0 0 1 354 243 L 457 243" p="922835a35b67" stroke="#cccdcd" fill="none" stroke-linecap="square" stroke-width="1"></path><path id="line_6c9023bb3560" d="M 456.65625 243 L 475 243 L 475 242.265625 L 665.65625 242.265625" p="1ae5eee8f0d8" stroke="#cccdcd" fill="none" stroke-linecap="square" stroke-width="1"></path><path id="line_3ac9ac7f8bcf" d="M 332 296.640625 L 350 296.640625 L 350 279 L 425 279" p="922835a35b67" stroke="#cccdcd" fill="none" stroke-linecap="square" stroke-width="1"></path><path id="line_26241d5d0fd6" d="M 425.4375 279 L 444 279 L 444 278.265625 L 817.4375 278.265625" p="3ac9ac7f8bcf" stroke="#cccdcd" fill="none" stroke-linecap="square" stroke-width="1"></path><path id="line_6ce8ea9d153c" d="M 332 296.640625 L 350 296.640625 L 350 315 L 421 315" p="922835a35b67" stroke="#cccdcd" fill="none" stroke-linecap="square" stroke-width="1"></path><path id="line_6e4c2483088a" d="M 421.109375 315 L 440 315 L 440 314.265625 L 726.109375 314.265625" p="6ce8ea9d153c" stroke="#cccdcd" fill="none" stroke-linecap="square" stroke-width="1"></path><path id="line_bcf8a22e4989" d="M 332 296.640625 L 350 296.640625 L 350 347 A 4 4 0 0 0 354 351 L 456 351" p="922835a35b67" stroke="#cccdcd" fill="none" stroke-linecap="square" stroke-width="1"></path><path id="line_f99e3cf46e1a" d="M 455.703125 351 L 474 351 L 474 350.265625 L 610.703125 350.265625" p="bcf8a22e4989" stroke="#cccdcd" fill="none" stroke-linecap="square" stroke-width="1"></path><path id="line_834908f62114" d="M 332 296.640625 L 350 296.640625 L 350 383 A 4 4 0 0 0 354 387 L 434 387" p="922835a35b67" stroke="#cccdcd" fill="none" stroke-linecap="square" stroke-width="1"></path><path id="line_89ca58a82c8c" d="M 434.296875 387 L 453 387 L 453 386.265625 L 659.296875 386.265625" p="834908f62114" stroke="#cccdcd" fill="none" stroke-linecap="square" stroke-width="1"></path></g><g transform="translate(0.5,0.5)"></g><g class="svg-summary-con" transform="translate(0.5,0.5)"></g><g class="svg-boundary-con" transform="translate(0.5,0.5)"></g></g><g transform="translate(258, 30)" id="sdjakdjak5"><g id="subline_6095425cb130" transform="translate(0.5, 0.5)"><path id="line_058c68db9825" d="M 340.921875 82 L 359 82 L 359 81.640625 A 4 4 0 0 1 363 77.640625 L 429.921875 77.640625" p="6095425cb130" stroke="#cccdcd" fill="none" stroke-linecap="square" stroke-width="1"></path><path id="line_c2d9f18f3425" d="M 430.21875 77.640625 L 449 77.640625 L 449 28.625 A 4 4 0 0 1 453 24.625 L 644.21875 24.625" p="058c68db9825" stroke="#cccdcd" fill="none" stroke-linecap="square" stroke-width="1"></path><path id="line_00dbba360e3d" d="M 430.21875 77.640625 L 449 77.640625 L 449 58.625 L 578.21875 58.625" p="058c68db9825" stroke="#cccdcd" fill="none" stroke-linecap="square" stroke-width="1"></path><path id="line_fdb3bbc85008" d="M 430.21875 77.640625 L 449 77.640625 L 449 92.625 L 610.21875 92.625" p="058c68db9825" stroke="#cccdcd" fill="none" stroke-linecap="square" stroke-width="1"></path><path id="line_73f3c89bf9eb" d="M 430.21875 77.640625 L 449 77.640625 L 449 122.625 A 4 4 0 0 0 453 126.625 L 583.21875 126.625" p="058c68db9825" stroke="#cccdcd" fill="none" stroke-linecap="square" stroke-width="1"></path><path id="line_2bbcd2a170b89114" d="M 340.921875 82 L 359 82 L 359 159 A 4 4 0 0 0 363 163 L 424.921875 163" p="6095425cb130" stroke="#cccdcd" fill="none" stroke-linecap="square" stroke-width="1"></path><path id="line_91eb72b2fa896a60" d="M 425.25 163 L 444 163 L 444 162.265625 L 554.25 162.265625" p="2bbcd2a170b89114" stroke="#cccdcd" fill="none" stroke-linecap="square" stroke-width="1"></path></g><g transform="translate(0.5,0.5)"></g><g class="svg-summary-con" transform="translate(0.5,0.5)"></g><g class="svg-boundary-con" transform="translate(0.5,0.5)"></g></g><g transform="translate(30, 560.5)" id="sdjakdjak6"><g id="subline_root" transform="translate(0.5, 0.5)"></g><g transform="translate(0.5,0.5)"></g><g class="svg-summary-con" transform="translate(0.5,0.5)"></g><g class="svg-boundary-con" transform="translate(0.5,0.5)"></g></g><g transform="translate(160, 1195.5)" id="sdjakdjak8"><g id="subline_9e58ee599ae8" transform="translate(0.5, 0.5)"><path id="line_d0b9387d9c20" d="M 129.796875 50 L 148 50 L 148 31 A 4 4 0 0 1 152 27 L 235.796875 27" p="9e58ee599ae8" stroke="#cccdcd" fill="none" stroke-linecap="square" stroke-width="1"></path><path id="line_9095cfacf712" d="M 235.953125 27 L 254 27 L 254 26.265625 L 533.953125 26.265625" p="d0b9387d9c20" stroke="#cccdcd" fill="none" stroke-linecap="square" stroke-width="1"></path><path id="line_a39791f320ce" d="M 129.796875 50 L 148 50 L 148 63 L 225.796875 63" p="9e58ee599ae8" stroke="#cccdcd" fill="none" stroke-linecap="square" stroke-width="1"></path><path id="line_98eebe3e5075" d="M 225.40625 63 L 244 63 L 244 62.265625 L 771.40625 62.265625" p="a39791f320ce" stroke="#cccdcd" fill="none" stroke-linecap="square" stroke-width="1"></path><path id="line_b15c344a8d7e" d="M 129.796875 50 L 148 50 L 148 95 A 4 4 0 0 0 152 99 L 238.796875 99" p="9e58ee599ae8" stroke="#cccdcd" fill="none" stroke-linecap="square" stroke-width="1"></path><path id="line_74b11f49bb69" d="M 238.640625 99 L 257 99 L 257 98.265625 L 679.640625 98.265625" p="b15c344a8d7e" stroke="#cccdcd" fill="none" stroke-linecap="square" stroke-width="1"></path></g><g transform="translate(0.5,0.5)"></g><g class="svg-summary-con" transform="translate(0.5,0.5)"></g><g class="svg-boundary-con" transform="translate(0.5,0.5)"></g></g><g id="root"><rect x="30" y="560.5" rx="6px" ry="6px" width="148" height="58" style="fill: rgb(149,218,105); stroke:rgb(255, 255, 255);stroke-width:0px;"></rect><g><text text-anchor="start" align="top" anchor="start" font-size="25px" font-weight="normal" fill="rgb(242, 242, 242)" style="font-size:25px;font-family:微软雅黑;color:rgb(242,242,242);font-style:normal;text-align:left;font-weight:normal;background-color:rgb(149,218,105);text-decoration:none;border-color:rgb(255, 255, 255);"><tspan x="50" y="598"><tspan>Skill Tree</tspan></tspan></text></g></g><g id="9e58ee599ae8"><rect x="160" y="1226.140625" rx="6px" ry="6px" width="130" height="40" style="fill: rgb(149,218,105); stroke:rgb(255, 255, 255);stroke-width:0px;"></rect><g><text text-anchor="start" align="top" anchor="start" font-size="16px" font-weight="normal" fill="rgb(242, 242, 242)" style="font-size:16px;font-family:微软雅黑;color:rgb(242,242,242);font-style:normal;text-align:left;font-weight:normal;background-color:rgb(149,218,105);text-decoration:none;border-color:rgb(255, 255, 255);"><tspan x="176" y="1252"><tspan>Mastery level</tspan></tspan></text></g></g><g id="d0b9387d9c20"><rect x="317.796875" y="1195.5" rx="5px" ry="5px" width="78" height="26" style="fill: #FFCDD2; stroke:rgb(68,68,68);stroke-width:1px;"></rect><g><text text-anchor="start" align="top" anchor="start" font-size="13px" font-weight="normal" fill="rgb(68, 68, 68)" style="font-size:13px;font-family:微软雅黑;color:rgb(68,68,68);font-style:normal;text-align:left;font-weight:normal;background-color:#FFCDD2;"><tspan x="328" y="1214"><tspan>Proficient</tspan></tspan></text></g></g><g id="9095cfacf712"><rect x="423.953125" y="1197.140625" rx="5px" ry="5px" width="270" height="24" style="fill: transparent; stroke:none;stroke-width:0px;"></rect><g><text text-anchor="start" align="top" anchor="start" font-size="13px" font-weight="normal" fill="rgb(68, 68, 68)" style="font-size:13px;font-family:微软雅黑;color:rgb(68,68,68);font-style:normal;text-align:left;font-weight:normal;"><tspan x="433" y="1215"><tspan>Efficiently complete without any guidance</tspan></tspan></text></g></g><g id="a39791f320ce"><rect x="317.796875" y="1231.5" rx="5px" ry="5px" width="68" height="26" style="fill: #FFF9C4; stroke:rgb(68,68,68);stroke-width:1px;"></rect><g><text text-anchor="start" align="top" anchor="start" font-size="13px" font-weight="normal" fill="rgb(68, 68, 68)" style="font-size:13px;font-family:微软雅黑;color:rgb(68,68,68);font-style:normal;text-align:left;font-weight:normal;background-color:#FFF9C4;"><tspan x="328" y="1250"><tspan>Familiar</tspan></tspan></text></g></g><g id="98eebe3e5075"><rect x="413.40625" y="1233.140625" rx="5px" ry="5px" width="518" height="24" style="fill: transparent; stroke:none;stroke-width:0px;"></rect><g><text text-anchor="start" align="top" anchor="start" font-size="13px" font-weight="normal" fill="rgb(68, 68, 68)" style="font-size:13px;font-family:微软雅黑;color:rgb(68,68,68);font-style:normal;text-align:left;font-weight:normal;"><tspan x="422" y="1251"><tspan>Proficient in development under the guidance of a small amount of documentation</tspan></tspan></text></g></g><g id="b15c344a8d7e"><rect x="317.796875" y="1267.5" rx="5px" ry="5px" width="81" height="26" style="fill: #B2EBF2; stroke:rgb(68,68,68);stroke-width:1px;"></rect><g><text text-anchor="start" align="top" anchor="start" font-size="13px" font-weight="normal" fill="rgb(68, 68, 68)" style="font-size:13px;font-family:微软雅黑;color:rgb(68,68,68);font-style:normal;text-align:left;font-weight:normal;background-color:#B2EBF2;"><tspan x="328" y="1286"><tspan>Cognizant</tspan></tspan></text></g></g><g id="74b11f49bb69"><rect x="426.640625" y="1269.140625" rx="5px" ry="5px" width="413" height="24" style="fill: transparent; stroke:none;stroke-width:0px;"></rect><g><text text-anchor="start" align="top" anchor="start" font-size="13px" font-weight="normal" fill="rgb(68, 68, 68)" style="font-size:13px;font-family:微软雅黑;color:rgb(68,68,68);font-style:normal;text-align:left;font-weight:normal;"><tspan x="436" y="1287"><tspan>Need to undergo a brief learning review before engaging in tasks</tspan></tspan></text></g></g></svg>